# Blender 5.1.0
# www.blender.org
mtllib backpack.mtl
o Cube
v 0.600682 2.063657 -1.196741
v 0.600682 2.195120 -1.065099
v 0.674923 2.063657 -1.065099
v 0.600682 2.156615 -1.158184
v 0.643545 2.139557 -1.141103
v 0.653178 2.156615 -1.065099
v 0.653178 2.063657 -1.158184
v 0.600682 -0.195120 -1.065099
v 0.600682 -0.063657 -1.196741
v 0.674923 -0.063657 -1.065099
v 0.600682 -0.156615 -1.158184
v 0.643545 -0.139557 -1.141103
v 0.653178 -0.063657 -1.158184
v 0.653178 -0.156615 -1.065099
v 0.674923 2.063657 1.065099
v 0.600682 2.195120 1.065099
v 0.600682 2.063657 1.196741
v 0.653178 2.156615 1.065099
v 0.643545 2.139557 1.141103
v 0.600682 2.156615 1.158184
v 0.653178 2.063657 1.158184
v 0.674923 -0.063657 1.065099
v 0.600682 -0.063657 1.196741
v 0.600682 -0.195120 1.065099
v 0.653178 -0.063657 1.158184
v 0.643545 -0.139557 1.141103
v 0.600682 -0.156615 1.158184
v 0.653178 -0.156615 1.065099
v -0.600682 2.063657 -1.196741
v -0.674923 2.063657 -1.065099
v -0.600682 2.195120 -1.065099
v -0.653178 2.063657 -1.158184
v -0.643545 2.139557 -1.141103
v -0.653178 2.156615 -1.065099
v -0.600682 2.156615 -1.158184
v -0.674923 -0.063657 -1.065099
v -0.600682 -0.063657 -1.196741
v -0.600682 -0.195120 -1.065099
v -0.653178 -0.063657 -1.158184
v -0.643545 -0.139557 -1.141103
v -0.600682 -0.156615 -1.158184
v -0.653178 -0.156615 -1.065099
v -0.674923 2.063657 1.065099
v -0.600682 2.063657 1.196741
v -0.600682 2.195120 1.065099
v -0.653178 2.063657 1.158184
v -0.643545 2.139557 1.141103
v -0.600682 2.156615 1.158184
v -0.653178 2.156615 1.065099
v -0.600682 -0.195120 1.065099
v -0.600682 -0.063657 1.196741
v -0.674923 -0.063657 1.065099
v -0.600682 -0.156615 1.158184
v -0.643545 -0.139557 1.141103
v -0.653178 -0.063657 1.158184
v -0.653178 -0.156615 1.065099
v -0.669332 1.354230 1.123631
v -0.669332 1.411595 1.276854
v -0.760604 1.411595 1.123631
v -0.669332 1.371032 1.231976
v -0.722028 1.378475 1.212094
v -0.733871 1.411595 1.231976
v -0.733871 1.371032 1.123631
v -0.669332 2.252960 1.276854
v -0.669332 2.310326 1.123631
v -0.760604 2.252960 1.123631
v -0.669332 2.293524 1.231976
v -0.722028 2.286080 1.212094
v -0.733871 2.293524 1.123631
v -0.733871 2.252960 1.231976
v -0.669332 1.354230 -1.123631
v -0.760604 1.411595 -1.123631
v -0.669332 1.411595 -1.276854
v -0.733871 1.371032 -1.123631
v -0.722028 1.378475 -1.212094
v -0.733871 1.411595 -1.231976
v -0.669332 1.371032 -1.231976
v -0.669332 2.310326 -1.123631
v -0.669332 2.252960 -1.276854
v -0.760604 2.252960 -1.123631
v -0.669332 2.293524 -1.231976
v -0.722028 2.286080 -1.212094
v -0.733871 2.252960 -1.231976
v -0.733871 2.293524 -1.123631
v 0.669332 1.354230 1.123631
v 0.760604 1.411595 1.123631
v 0.669332 1.411595 1.276854
v 0.733871 1.371032 1.123631
v 0.722028 1.378475 1.212094
v 0.733871 1.411595 1.231976
v 0.669332 1.371032 1.231976
v 0.669332 2.310326 1.123631
v 0.669332 2.252960 1.276854
v 0.760604 2.252960 1.123631
v 0.669332 2.293524 1.231976
v 0.722028 2.286080 1.212094
v 0.733871 2.252960 1.231976
v 0.733871 2.293524 1.123631
v 0.669332 1.354230 -1.123631
v 0.669332 1.411595 -1.276854
v 0.760604 1.411595 -1.123631
v 0.669332 1.371032 -1.231976
v 0.722028 1.378475 -1.212094
v 0.733871 1.411595 -1.231976
v 0.733871 1.371032 -1.123631
v 0.669332 2.310326 -1.123631
v 0.760604 2.252960 -1.123631
v 0.669332 2.252960 -1.276854
v 0.733871 2.293524 -1.123631
v 0.722028 2.286080 -1.212094
v 0.733871 2.252960 -1.231976
v 0.669332 2.293524 -1.231976
v -0.603130 2.428161 1.012496
v -0.603130 2.428161 -1.012496
v 0.603130 2.428161 1.012496
v 0.603130 2.428161 -1.012496
v 0.647512 0.910976 0.770199
v 0.647512 1.686671 0.770199
v 0.647512 0.910976 0.359038
v 0.647512 1.686671 0.359038
v 0.847512 0.910976 0.770199
v 0.847512 1.686671 0.770199
v 0.847512 0.910976 0.359038
v 0.847512 1.686671 0.359038
v 0.647512 0.910976 -0.359038
v 0.647512 1.686671 -0.359038
v 0.647512 0.910976 -0.770199
v 0.647512 1.686671 -0.770199
v 0.847512 0.910976 -0.359038
v 0.847512 1.686671 -0.359038
v 0.847512 0.910976 -0.770199
v 0.847512 1.686671 -0.770199
vn 0.5204 0.2939 -0.8018
vn 0.5200 0.8023 -0.2933
vn 0.9599 0.1984 -0.1981
vn 0.5200 -0.8023 -0.2933
vn 0.5204 -0.2939 -0.8018
vn 0.9599 -0.1984 -0.1981
vn 0.9599 0.1984 0.1981
vn 0.5200 0.8023 0.2933
vn 0.5204 0.2939 0.8018
vn 0.9599 -0.1984 0.1981
vn 0.5204 -0.2939 0.8018
vn 0.5200 -0.8023 0.2933
vn -0.5204 0.2939 -0.8018
vn -0.9599 0.1984 -0.1981
vn -0.5200 0.8023 -0.2933
vn -0.9599 -0.1984 -0.1981
vn -0.5204 -0.2939 -0.8018
vn -0.5200 -0.8023 -0.2933
vn -0.9599 0.1984 0.1981
vn -0.5204 0.2939 0.8018
vn -0.5200 0.8023 0.2933
vn -0.5200 -0.8023 0.2933
vn -0.5204 -0.2939 0.8018
vn -0.9599 -0.1984 0.1981
vn -0.5914 -0.8064 -0.0000
vn -0.9737 -0.2278 -0.0000
vn -0.0000 -0.9241 -0.3822
vn -0.0000 -0.3831 -0.9237
vn 0.9738 -0.0000 -0.2275
vn 0.5920 -0.0000 -0.8060
vn -0.5920 -0.0000 0.8060
vn -0.9738 -0.0000 0.2275
vn 0.5920 -0.0000 0.8060
vn 0.9738 -0.0000 0.2275
vn -0.5920 -0.0000 -0.8060
vn -0.9738 -0.0000 -0.2275
vn -0.0000 0.9241 0.3822
vn -0.0000 0.3831 0.9237
vn 0.5914 0.8064 -0.0000
vn 0.9737 0.2278 -0.0000
vn -0.0000 -0.9241 0.3822
vn -0.0000 -0.3831 0.9237
vn -0.5914 0.8064 -0.0000
vn -0.9737 0.2278 -0.0000
vn -0.0000 0.9241 -0.3822
vn -0.0000 0.3831 -0.9237
vn 0.5914 -0.8064 -0.0000
vn 0.9737 -0.2278 -0.0000
vn -0.0000 -0.0000 -1.0000
vn 1.0000 -0.0000 -0.0000
vn -0.0000 1.0000 -0.0000
vn -0.0000 -1.0000 -0.0000
vn -0.0000 -0.0000 1.0000
vn -1.0000 -0.0000 -0.0000
vn -0.2222 -0.9660 0.1324
vn -0.4023 -0.6400 0.6547
vn -0.8492 -0.4945 0.1852
vn -0.4023 0.6400 0.6547
vn -0.2222 0.9660 0.1324
vn -0.8492 0.4945 0.1852
vn -0.2222 -0.9660 -0.1324
vn -0.8492 -0.4945 -0.1852
vn -0.4023 -0.6400 -0.6547
vn -0.2222 0.9660 -0.1324
vn -0.4023 0.6400 -0.6547
vn -0.8492 0.4945 -0.1852
vn 0.2222 -0.9660 0.1324
vn 0.8492 -0.4945 0.1852
vn 0.4023 -0.6400 0.6547
vn 0.2222 0.9660 0.1324
vn 0.4023 0.6400 0.6547
vn 0.8492 0.4945 0.1852
vn 0.2222 -0.9660 -0.1324
vn 0.4023 -0.6400 -0.6547
vn 0.8492 -0.4945 -0.1852
vn 0.2222 0.9660 -0.1324
vn 0.8492 0.4945 -0.1852
vn 0.4023 0.6400 -0.6547
vn -0.2519 -0.9677 -0.0000
vn -0.8350 -0.5503 -0.0000
vn -0.5709 -0.0000 0.8210
vn -0.9709 -0.0000 0.2396
vn -0.2519 0.9677 -0.0000
vn -0.8350 0.5503 -0.0000
vn -0.5709 -0.0000 -0.8210
vn -0.9709 -0.0000 -0.2396
vn -0.0000 -0.9882 -0.1532
vn -0.0000 -0.7419 -0.6705
vn -0.0000 0.9882 -0.1532
vn -0.0000 0.7419 -0.6705
vn 0.9709 -0.0000 -0.2396
vn 0.5709 -0.0000 -0.8210
vn 0.2519 -0.9677 -0.0000
vn 0.8350 -0.5503 -0.0000
vn 0.2519 0.9677 -0.0000
vn 0.8350 0.5503 -0.0000
vn 0.5709 -0.0000 0.8210
vn 0.9709 -0.0000 0.2396
vn -0.0000 -0.9882 0.1532
vn -0.0000 -0.7419 0.6705
vn -0.0000 0.9882 0.1532
vn -0.0000 0.7419 0.6705
vn -0.8718 -0.4898 -0.0000
vn -0.0000 -0.6861 0.7275
vn 0.8718 -0.4898 -0.0000
vn -0.0000 -0.6861 -0.7275
vt 0.611250 0.486250
vt 0.631875 0.493125
vt 0.623063 0.500000
vt 0.611250 0.500000
vt 0.638750 0.513750
vt 0.625000 0.513750
vt 0.611250 0.513750
vt 0.361250 0.513750
vt 0.368125 0.493125
vt 0.375000 0.501937
vt 0.375000 0.513750
vt 0.388750 0.486250
vt 0.388750 0.500000
vt 0.388750 0.513750
vt 0.611250 0.736250
vt 0.625000 0.736250
vt 0.625000 0.748063
vt 0.611250 0.750000
vt 0.638750 0.736250
vt 0.631875 0.756875
vt 0.611250 0.763750
vt 0.388750 0.736250
vt 0.388750 0.750000
vt 0.376937 0.750000
vt 0.375000 0.736250
vt 0.388750 0.763750
vt 0.368125 0.756875
vt 0.361250 0.736250
vt 0.611250 0.263750
vt 0.611250 0.250000
vt 0.622094 0.247094
vt 0.625000 0.263750
vt 0.611250 0.236250
vt 0.625000 0.236250
vt 0.861250 0.513750
vt 0.861250 0.500000
vt 0.869189 0.500000
vt 0.875000 0.513750
vt 0.388750 0.236250
vt 0.388750 0.250000
vt 0.377906 0.252906
vt 0.375000 0.236250
vt 0.388750 0.263750
vt 0.375000 0.263750
vt 0.138750 0.513750
vt 0.125000 0.513750
vt 0.125000 0.505811
vt 0.138750 0.500000
vt 0.611250 0.013750
vt 0.611250 0.000000
vt 0.619189 0.000000
vt 0.625000 0.013750
vt 0.611250 0.986250
vt 0.625000 0.986250
vt 0.625000 0.994189
vt 0.611250 1.000000
vt 0.861250 0.736250
vt 0.875000 0.736250
vt 0.875000 0.744189
vt 0.861250 0.750000
vt 0.138750 0.736250
vt 0.138750 0.750000
vt 0.130811 0.750000
vt 0.125000 0.736250
vt 0.388750 0.986250
vt 0.388750 1.000000
vt 0.380811 1.000000
vt 0.375000 0.986250
vt 0.388750 0.013750
vt 0.375000 0.013750
vt 0.375000 0.005811
vt 0.388750 0.000000
vt 0.000000 0.000000
s 0
usemtl Material
f 1/1/1 4/2/1 5/3/1 7/4/1
f 2/5/2 6/6/2 5/3/2 4/2/2
f 3/7/3 7/4/3 5/3/3 6/6/3
f 8/8/4 11/9/4 12/10/4 14/11/4
f 9/12/5 13/13/5 12/10/5 11/9/5
f 10/14/6 14/11/6 12/10/6 13/13/6
f 15/15/7 18/16/7 19/17/7 21/18/7
f 16/19/8 20/20/8 19/17/8 18/16/8
f 17/21/9 21/18/9 19/17/9 20/20/9
f 22/22/10 25/23/10 26/24/10 28/25/10
f 23/26/11 27/27/11 26/24/11 25/23/11
f 24/28/12 28/25/12 26/24/12 27/27/12
f 29/29/13 32/30/13 33/31/13 35/32/13
f 30/33/14 34/34/14 33/31/14 32/30/14
f 31/35/15 35/36/15 33/37/15 34/38/15
f 36/39/16 39/40/16 40/41/16 42/42/16
f 37/43/17 41/44/17 40/41/17 39/40/17
f 38/45/18 42/46/18 40/47/18 41/48/18
f 43/49/19 46/50/19 47/51/19 49/52/19
f 44/53/20 48/54/20 47/55/20 46/56/20
f 45/57/21 49/58/21 47/59/21 48/60/21
f 50/61/22 53/62/22 54/63/22 56/64/22
f 51/65/23 55/66/23 54/67/23 53/68/23
f 52/69/24 56/70/24 54/71/24 55/72/24
f 38/45/25 50/61/25 56/64/25 42/46/25
f 42/42/26 56/70/26 52/69/26 36/39/26
f 8/8/27 38/45/27 41/48/27 11/9/27
f 11/9/28 41/44/28 37/43/28 9/12/28
f 3/7/29 10/14/29 13/13/29 7/4/29
f 7/4/30 13/13/30 9/12/30 1/1/30
f 51/65/31 44/53/31 46/56/31 55/66/31
f 55/72/32 46/50/32 43/49/32 52/69/32
f 17/21/33 23/26/33 25/23/33 21/18/33
f 21/18/34 25/23/34 22/22/34 15/15/34
f 29/29/35 37/43/35 39/40/35 32/30/35
f 32/30/36 39/40/36 36/39/36 30/33/36
f 16/19/37 45/57/37 48/60/37 20/20/37
f 20/20/38 48/54/38 44/53/38 17/21/38
f 2/5/39 16/19/39 18/16/39 6/6/39
f 6/6/40 18/16/40 15/15/40 3/7/40
f 50/61/41 24/28/41 27/27/41 53/62/41
f 53/68/42 27/27/42 23/26/42 51/65/42
f 45/57/43 31/35/43 34/38/43 49/58/43
f 49/52/44 34/34/44 30/33/44 43/49/44
f 31/35/45 2/5/45 4/2/45 35/36/45
f 35/32/46 4/2/46 1/1/46 29/29/46
f 24/28/47 8/8/47 14/11/47 28/25/47
f 28/25/48 14/11/48 10/14/48 22/22/48
f 37/43/49 29/29/49 1/1/49 9/12/49
f 10/14/50 3/7/50 15/15/50 22/22/50
f 2/5/51 31/35/51 45/57/51 16/19/51
f 38/45/52 8/8/52 24/28/52 50/61/52
f 23/26/53 17/21/53 44/53/53 51/65/53
f 52/69/54 43/49/54 30/33/54 36/39/54
usemtl 
f 57/73/55 60/73/55 61/73/55 63/73/55
f 58/73/56 62/73/56 61/73/56 60/73/56
f 59/73/57 63/73/57 61/73/57 62/73/57
f 64/73/58 67/73/58 68/73/58 70/73/58
f 65/73/59 69/73/59 68/73/59 67/73/59
f 66/73/60 70/73/60 68/73/60 69/73/60
f 71/73/61 74/73/61 75/73/61 77/73/61
f 72/73/62 76/73/62 75/73/62 74/73/62
f 73/73/63 77/73/63 75/73/63 76/73/63
f 78/73/64 81/73/64 82/73/64 84/73/64
f 79/73/65 83/73/65 82/73/65 81/73/65
f 80/73/66 84/73/66 82/73/66 83/73/66
f 85/73/67 88/73/67 89/73/67 91/73/67
f 86/73/68 90/73/68 89/73/68 88/73/68
f 87/73/69 91/73/69 89/73/69 90/73/69
f 92/73/70 95/73/70 96/73/70 98/73/70
f 93/73/71 97/73/71 96/73/71 95/73/71
f 94/73/72 98/73/72 96/73/72 97/73/72
f 99/73/73 102/73/73 103/73/73 105/73/73
f 100/73/74 104/73/74 103/73/74 102/73/74
f 101/73/75 105/73/75 103/73/75 104/73/75
f 106/73/76 109/73/76 110/73/76 112/73/76
f 107/73/77 111/73/77 110/73/77 109/73/77
f 108/73/78 112/73/78 110/73/78 111/73/78
f 71/73/79 57/73/79 63/73/79 74/73/79
f 74/73/80 63/73/80 59/73/80 72/73/80
f 58/73/81 64/73/81 70/73/81 62/73/81
f 62/73/82 70/73/82 66/73/82 59/73/82
f 65/73/83 78/73/83 84/73/83 69/73/83
f 69/73/84 84/73/84 80/73/84 66/73/84
f 79/73/85 73/73/85 76/73/85 83/73/85
f 83/73/86 76/73/86 72/73/86 80/73/86
f 99/73/87 71/73/87 77/73/87 102/73/87
f 102/73/88 77/73/88 73/73/88 100/73/88
f 78/73/89 106/73/89 112/73/89 81/73/89
f 81/73/90 112/73/90 108/73/90 79/73/90
f 107/73/91 101/73/91 104/73/91 111/73/91
f 111/73/92 104/73/92 100/73/92 108/73/92
f 85/73/93 99/73/93 105/73/93 88/73/93
f 88/73/94 105/73/94 101/73/94 86/73/94
f 106/73/95 92/73/95 98/73/95 109/73/95
f 109/73/96 98/73/96 94/73/96 107/73/96
f 93/73/97 87/73/97 90/73/97 97/73/97
f 97/73/98 90/73/98 86/73/98 94/73/98
f 57/73/99 85/73/99 91/73/99 60/73/99
f 60/73/100 91/73/100 87/73/100 58/73/100
f 92/73/101 65/73/101 67/73/101 95/73/101
f 95/73/102 67/73/102 64/73/102 93/73/102
f 71/73/52 99/73/52 85/73/52 57/73/52
f 59/73/54 66/73/54 80/73/54 72/73/54
f 87/73/53 93/73/53 64/73/53 58/73/53
f 106/73/51 78/73/51 65/73/51 92/73/51
f 73/73/49 79/73/49 108/73/49 100/73/49
f 101/73/50 107/73/50 94/73/50 86/73/50
f 114/73/51 113/73/51 115/73/51 116/73/51
f 116/73/103 106/73/103 92/73/103 115/73/103
f 114/73/104 78/73/104 106/73/104 116/73/104
f 113/73/105 65/73/105 78/73/105 114/73/105
f 115/73/106 92/73/106 65/73/106 113/73/106
f 117/73/54 118/73/54 120/73/54 119/73/54
f 119/73/49 120/73/49 124/73/49 123/73/49
f 123/73/50 124/73/50 122/73/50 121/73/50
f 121/73/53 122/73/53 118/73/53 117/73/53
f 119/73/52 123/73/52 121/73/52 117/73/52
f 124/73/51 120/73/51 118/73/51 122/73/51
f 125/73/54 126/73/54 128/73/54 127/73/54
f 127/73/49 128/73/49 132/73/49 131/73/49
f 131/73/50 132/73/50 130/73/50 129/73/50
f 129/73/53 130/73/53 126/73/53 125/73/53
f 127/73/52 131/73/52 129/73/52 125/73/52
f 132/73/51 128/73/51 126/73/51 130/73/51
