# Blender 5.1.0
# www.blender.org
mtllib glasses02.mtl
o Cube.001
v 0.815724 0.090000 -3.336120
v 0.815724 0.100000 -3.202508
v 0.906360 0.090000 -3.202508
v 0.815724 0.097071 -3.296986
v 0.868053 0.095774 -3.279649
v 0.879814 0.097071 -3.202508
v 0.879814 0.090000 -3.296986
v 0.815724 -0.100000 -3.202508
v 0.815724 -0.090000 -3.336120
v 0.906360 -0.090000 -3.202508
v 0.815724 -0.097071 -3.296986
v 0.868053 -0.095774 -3.279649
v 0.879814 -0.090000 -3.296986
v 0.879814 -0.097071 -3.202508
v 0.906360 0.090000 -0.797492
v 0.815724 0.100000 -0.797492
v 0.815724 0.090000 -0.663880
v 0.879814 0.097071 -0.797492
v 0.868053 0.095774 -0.720351
v 0.815724 0.097071 -0.703014
v 0.879814 0.090000 -0.703014
v 0.906360 -0.090000 -0.797492
v 0.815724 -0.090000 -0.663880
v 0.815724 -0.100000 -0.797492
v 0.879814 -0.090000 -0.703014
v 0.868053 -0.095774 -0.720351
v 0.815724 -0.097071 -0.703014
v 0.879814 -0.097071 -0.797492
v -0.815724 0.090000 -3.336120
v -0.906360 0.090000 -3.202508
v -0.815724 0.100000 -3.202508
v -0.879814 0.090000 -3.296986
v -0.868053 0.095774 -3.279649
v -0.879814 0.097071 -3.202508
v -0.815724 0.097071 -3.296986
v -0.906360 -0.090000 -3.202508
v -0.815724 -0.090000 -3.336120
v -0.815724 -0.100000 -3.202508
v -0.879814 -0.090000 -3.296986
v -0.868053 -0.095774 -3.279649
v -0.815724 -0.097071 -3.296986
v -0.879814 -0.097071 -3.202508
v -0.906360 0.090000 -0.797492
v -0.815724 0.090000 -0.663880
v -0.815724 0.100000 -0.797492
v -0.879814 0.090000 -0.703014
v -0.868053 0.095774 -0.720351
v -0.815724 0.097071 -0.703014
v -0.879814 0.097071 -0.797492
v -0.815724 -0.100000 -0.797492
v -0.815724 -0.090000 -0.663880
v -0.906360 -0.090000 -0.797492
v -0.815724 -0.097071 -0.703014
v -0.868053 -0.095774 -0.720351
v -0.879814 -0.090000 -0.703014
v -0.879814 -0.097071 -0.797492
v -0.774447 0.100000 -0.972507
v -0.774447 0.100000 -3.027493
v 0.751764 0.100000 -3.108220
v 0.697002 0.100000 -3.141658
v -0.697002 0.100000 -3.141658
v -0.751764 0.100000 -3.108220
v -0.751764 0.100000 -0.891780
v -0.697002 0.100000 -0.858342
v 0.774447 0.100000 -0.972507
v 0.774447 0.100000 -3.027493
v 0.751764 0.100000 -0.891780
v 0.697002 0.100000 -0.858342
v -0.751764 -0.100000 -3.108220
v -0.697002 -0.100000 -3.141658
v 0.774447 -0.100000 -0.972507
v 0.774447 -0.100000 -3.027493
v 0.751764 -0.100000 -3.108220
v 0.697002 -0.100000 -3.141658
v -0.774447 -0.100000 -0.972507
v -0.774447 -0.100000 -3.027493
v 0.751764 -0.100000 -0.891780
v 0.697002 -0.100000 -0.858342
v -0.697002 -0.100000 -0.858342
v -0.751764 -0.100000 -0.891780
v 0.815724 0.090000 0.663880
v 0.815724 0.100000 0.797492
v 0.906360 0.090000 0.797492
v 0.815724 0.097071 0.703014
v 0.868053 0.095774 0.720351
v 0.879814 0.097071 0.797492
v 0.879814 0.090000 0.703014
v 0.815724 -0.100000 0.797492
v 0.815724 -0.090000 0.663880
v 0.906360 -0.090000 0.797492
v 0.815724 -0.097071 0.703014
v 0.868053 -0.095774 0.720351
v 0.879814 -0.090000 0.703014
v 0.879814 -0.097071 0.797492
v 0.906360 0.090000 3.202508
v 0.815724 0.100000 3.202508
v 0.815724 0.090000 3.336120
v 0.879814 0.097071 3.202508
v 0.868053 0.095774 3.279649
v 0.815724 0.097071 3.296986
v 0.879814 0.090000 3.296986
v 0.906360 -0.090000 3.202508
v 0.815724 -0.090000 3.336120
v 0.815724 -0.100000 3.202508
v 0.879814 -0.090000 3.296986
v 0.868053 -0.095774 3.279649
v 0.815724 -0.097071 3.296986
v 0.879814 -0.097071 3.202508
v -0.815724 0.090000 0.663880
v -0.906360 0.090000 0.797492
v -0.815724 0.100000 0.797492
v -0.879814 0.090000 0.703014
v -0.868053 0.095774 0.720351
v -0.879814 0.097071 0.797492
v -0.815724 0.097071 0.703014
v -0.906360 -0.090000 0.797492
v -0.815724 -0.090000 0.663880
v -0.815724 -0.100000 0.797492
v -0.879814 -0.090000 0.703014
v -0.868053 -0.095774 0.720351
v -0.815724 -0.097071 0.703014
v -0.879814 -0.097071 0.797492
v -0.906360 0.090000 3.202508
v -0.815724 0.090000 3.336120
v -0.815724 0.100000 3.202508
v -0.879814 0.090000 3.296986
v -0.868053 0.095774 3.279649
v -0.815724 0.097071 3.296986
v -0.879814 0.097071 3.202508
v -0.815724 -0.100000 3.202508
v -0.815724 -0.090000 3.336120
v -0.906360 -0.090000 3.202508
v -0.815724 -0.097071 3.296986
v -0.868053 -0.095774 3.279649
v -0.879814 -0.090000 3.296986
v -0.879814 -0.097071 3.202508
v -0.774447 0.100000 3.027493
v -0.774447 0.100000 0.972507
v 0.751764 0.100000 0.891780
v 0.697002 0.100000 0.858342
v -0.697002 0.100000 0.858342
v -0.751764 0.100000 0.891780
v -0.751764 0.100000 3.108220
v -0.697002 0.100000 3.141659
v 0.774447 0.100000 3.027493
v 0.774447 0.100000 0.972507
v 0.751764 0.100000 3.108220
v 0.697002 0.100000 3.141659
v -0.751764 -0.100000 0.891780
v -0.697002 -0.100000 0.858342
v 0.774447 -0.100000 3.027493
v 0.774447 -0.100000 0.972507
v 0.751764 -0.100000 0.891780
v 0.697002 -0.100000 0.858342
v -0.774447 -0.100000 3.027493
v -0.774447 -0.100000 0.972507
v 0.751764 -0.100000 3.108220
v 0.697002 -0.100000 3.141659
v -0.697002 -0.100000 3.141659
v -0.751764 -0.100000 3.108220
v -0.100942 -0.100000 0.811331
v -0.100942 0.100000 0.811331
v -0.100942 -0.100000 -0.811331
v -0.100942 0.100000 -0.811331
v 0.100942 -0.100000 0.811331
v 0.100942 0.100000 0.811331
v 0.100942 -0.100000 -0.811331
v 0.100942 0.100000 -0.811331
vn 0.1075 0.9741 -0.1992
vn 0.0403 0.9988 -0.0274
vn 0.2879 0.9550 -0.0715
vn 0.0403 -0.9988 -0.0274
vn 0.1075 -0.9741 -0.1992
vn 0.2879 -0.9550 -0.0715
vn 0.2879 0.9550 0.0715
vn 0.0403 0.9988 0.0274
vn 0.1075 0.9741 0.1992
vn 0.2879 -0.9550 0.0715
vn 0.1075 -0.9741 0.1992
vn 0.0403 -0.9988 0.0274
vn -0.1075 0.9741 -0.1992
vn -0.2879 0.9550 -0.0715
vn -0.0403 0.9988 -0.0274
vn -0.2879 -0.9550 -0.0715
vn -0.1075 -0.9741 -0.1992
vn -0.0403 -0.9988 -0.0274
vn -0.2879 0.9550 0.0715
vn -0.1075 0.9741 0.1992
vn -0.0403 0.9988 0.0274
vn -0.0403 -0.9988 0.0274
vn -0.1075 -0.9741 0.1992
vn -0.2879 -0.9550 0.0715
vn -0.0457 -0.9990 -0.0000
vn -0.2574 -0.9663 -0.0000
vn -0.0000 -0.9995 -0.0310
vn -0.0000 -0.9841 -0.1778
vn 0.9627 -0.0000 -0.2705
vn 0.5211 -0.0000 -0.8535
vn -0.5211 -0.0000 0.8535
vn -0.9627 -0.0000 0.2705
vn 0.5211 -0.0000 0.8535
vn 0.9627 -0.0000 0.2705
vn -0.5211 -0.0000 -0.8535
vn -0.9627 -0.0000 -0.2705
vn -0.0000 0.9995 0.0310
vn -0.0000 0.9841 0.1778
vn 0.0457 0.9990 -0.0000
vn 0.2574 0.9663 -0.0000
vn -0.0000 -0.9995 0.0310
vn -0.0000 -0.9841 0.1778
vn -0.0457 0.9990 -0.0000
vn -0.2574 0.9663 -0.0000
vn -0.0000 0.9995 -0.0310
vn -0.0000 0.9841 -0.1778
vn 0.0457 -0.9990 -0.0000
vn 0.2574 -0.9663 -0.0000
vn -0.0000 -0.0000 -1.0000
vn 1.0000 -0.0000 -0.0000
vn -0.0000 1.0000 -0.0000
vn -0.0000 -1.0000 -0.0000
vn -0.0000 -0.0000 1.0000
vn -1.0000 -0.0000 -0.0000
vt 0.612500 0.487500
vt 0.631250 0.493750
vt 0.623239 0.500000
vt 0.612500 0.500000
vt 0.637500 0.512500
vt 0.625000 0.512500
vt 0.612500 0.512500
vt 0.362500 0.512500
vt 0.368750 0.493750
vt 0.375000 0.501761
vt 0.375000 0.512500
vt 0.387500 0.487500
vt 0.387500 0.500000
vt 0.387500 0.512500
vt 0.612500 0.737500
vt 0.625000 0.737500
vt 0.625000 0.748239
vt 0.612500 0.750000
vt 0.637500 0.737500
vt 0.631250 0.756250
vt 0.612500 0.762500
vt 0.387500 0.737500
vt 0.387500 0.750000
vt 0.376761 0.750000
vt 0.375000 0.737500
vt 0.387500 0.762500
vt 0.368750 0.756250
vt 0.362500 0.737500
vt 0.612500 0.262500
vt 0.612500 0.250000
vt 0.622358 0.247358
vt 0.625000 0.262500
vt 0.612500 0.237500
vt 0.625000 0.237500
vt 0.862500 0.512500
vt 0.862500 0.500000
vt 0.869717 0.500000
vt 0.875000 0.512500
vt 0.387500 0.237500
vt 0.387500 0.250000
vt 0.377642 0.252642
vt 0.375000 0.237500
vt 0.387500 0.262500
vt 0.375000 0.262500
vt 0.137500 0.512500
vt 0.125000 0.512500
vt 0.125000 0.505283
vt 0.137500 0.500000
vt 0.612500 0.012500
vt 0.612500 0.000000
vt 0.619717 0.000000
vt 0.625000 0.012500
vt 0.612500 0.987500
vt 0.625000 0.987500
vt 0.625000 0.994717
vt 0.612500 1.000000
vt 0.862500 0.737500
vt 0.875000 0.737500
vt 0.875000 0.744717
vt 0.862500 0.750000
vt 0.137500 0.737500
vt 0.137500 0.750000
vt 0.130283 0.750000
vt 0.125000 0.737500
vt 0.387500 0.987500
vt 0.387500 1.000000
vt 0.380283 1.000000
vt 0.375000 0.987500
vt 0.387500 0.012500
vt 0.375000 0.012500
vt 0.375000 0.005283
vt 0.387500 0.000000
vt 0.853679 0.728679
vt 0.646321 0.728679
vt 0.653873 0.731807
vt 0.846126 0.731807
vt 0.856807 0.721126
vt 0.856807 0.528873
vt 0.853679 0.521321
vt 0.846126 0.518193
vt 0.653874 0.518193
vt 0.646321 0.521321
vt 0.643193 0.528873
vt 0.643193 0.721126
vt 0.146321 0.728679
vt 0.153873 0.731807
vt 0.346127 0.731807
vt 0.353679 0.728679
vt 0.356807 0.721126
vt 0.356807 0.528873
vt 0.353679 0.521321
vt 0.346126 0.518193
vt 0.153874 0.518193
vt 0.146321 0.521321
vt 0.143193 0.528873
vt 0.143193 0.721126
vt 0.512500 0.512500
vt 0.512500 0.500000
vt 0.487500 0.500000
vt 0.487500 0.512500
vt 0.512500 0.487500
vt 0.487500 0.487500
vt 0.512500 1.000000
vt 0.512500 0.987500
vt 0.487500 0.987500
vt 0.487500 1.000000
vt 0.487500 0.012500
vt 0.512500 0.012500
vt 0.512500 0.000000
vt 0.487500 0.000000
vt 0.512500 0.762500
vt 0.512500 0.750000
vt 0.487500 0.750000
vt 0.487500 0.762500
vt 0.512500 0.737500
vt 0.487500 0.737500
vt 0.487500 0.262500
vt 0.512500 0.262500
vt 0.512500 0.250000
vt 0.487500 0.250000
vt 0.512500 0.237500
vt 0.487500 0.237500
vt 0.000000 0.000000
s 0
usemtl Material.002
f 1/1/1 4/2/1 5/3/1 7/4/1
f 2/5/2 6/6/2 5/3/2 4/2/2
f 3/7/3 7/4/3 5/3/3 6/6/3
f 8/8/4 11/9/4 12/10/4 14/11/4
f 9/12/5 13/13/5 12/10/5 11/9/5
f 10/14/6 14/11/6 12/10/6 13/13/6
f 15/15/7 18/16/7 19/17/7 21/18/7
f 16/19/8 20/20/8 19/17/8 18/16/8
f 17/21/9 21/18/9 19/17/9 20/20/9
f 22/22/10 25/23/10 26/24/10 28/25/10
f 23/26/11 27/27/11 26/24/11 25/23/11
f 24/28/12 28/25/12 26/24/12 27/27/12
f 29/29/13 32/30/13 33/31/13 35/32/13
f 30/33/14 34/34/14 33/31/14 32/30/14
f 31/35/15 35/36/15 33/37/15 34/38/15
f 36/39/16 39/40/16 40/41/16 42/42/16
f 37/43/17 41/44/17 40/41/17 39/40/17
f 38/45/18 42/46/18 40/47/18 41/48/18
f 43/49/19 46/50/19 47/51/19 49/52/19
f 44/53/20 48/54/20 47/55/20 46/56/20
f 45/57/21 49/58/21 47/59/21 48/60/21
f 50/61/22 53/62/22 54/63/22 56/64/22
f 51/65/23 55/66/23 54/67/23 53/68/23
f 52/69/24 56/70/24 54/71/24 55/72/24
f 38/45/25 50/61/25 56/64/25 42/46/25
f 42/42/26 56/70/26 52/69/26 36/39/26
f 8/8/27 38/45/27 41/48/27 11/9/27
f 11/9/28 41/44/28 37/43/28 9/12/28
f 3/7/29 10/14/29 13/13/29 7/4/29
f 7/4/30 13/13/30 9/12/30 1/1/30
f 51/65/31 44/53/31 46/56/31 55/66/31
f 55/72/32 46/50/32 43/49/32 52/69/32
f 17/21/33 23/26/33 25/23/33 21/18/33
f 21/18/34 25/23/34 22/22/34 15/15/34
f 29/29/35 37/43/35 39/40/35 32/30/35
f 32/30/36 39/40/36 36/39/36 30/33/36
f 16/19/37 45/57/37 48/60/37 20/20/37
f 20/20/38 48/54/38 44/53/38 17/21/38
f 2/5/39 16/19/39 18/16/39 6/6/39
f 6/6/40 18/16/40 15/15/40 3/7/40
f 50/61/41 24/28/41 27/27/41 53/62/41
f 53/68/42 27/27/42 23/26/42 51/65/42
f 45/57/43 31/35/43 34/38/43 49/58/43
f 49/52/44 34/34/44 30/33/44 43/49/44
f 31/35/45 2/5/45 4/2/45 35/36/45
f 35/32/46 4/2/46 1/1/46 29/29/46
f 24/28/47 8/8/47 14/11/47 28/25/47
f 28/25/48 14/11/48 10/14/48 22/22/48
f 37/43/49 29/29/49 1/1/49 9/12/49
f 10/14/50 3/7/50 15/15/50 22/22/50
f 63/73/51 45/57/51 16/19/51 67/74/51 68/75/51 64/76/51
f 67/74/51 16/19/51 2/5/51 31/35/51 45/57/51 63/73/51 57/77/51 58/78/51 62/79/51 61/80/51 60/81/51 59/82/51 66/83/51 65/84/51
f 24/28/52 50/61/52 80/85/52 79/86/52 78/87/52 77/88/52
f 80/85/52 50/61/52 38/45/52 8/8/52 24/28/52 77/88/52 71/89/52 72/90/52 73/91/52 74/92/52 70/93/52 69/94/52 76/95/52 75/96/52
f 23/26/53 17/21/53 44/53/53 51/65/53
f 52/69/54 43/49/54 30/33/54 36/39/54
f 66/97/32 59/98/32 73/99/32 72/100/32
f 73/99/31 59/98/31 60/101/31 74/102/31
f 63/103/30 64/104/30 79/105/30 80/106/30
f 75/107/29 57/108/29 63/109/29 80/110/29
f 68/111/35 67/112/35 77/113/35 78/114/35
f 67/112/36 65/115/36 71/116/36 77/113/36
f 70/117/33 61/118/33 62/119/33 69/120/33
f 69/120/34 62/119/34 58/121/34 76/122/34
f 74/102/53 60/101/53 61/118/53 70/117/53
f 65/115/54 66/97/54 72/100/54 71/116/54
f 64/104/49 68/111/49 78/114/49 79/105/49
f 76/122/50 58/121/50 57/108/50 75/107/50
usemtl Material
f 81/1/1 84/2/1 85/3/1 87/4/1
f 82/5/2 86/6/2 85/3/2 84/2/2
f 83/7/3 87/4/3 85/3/3 86/6/3
f 88/8/4 91/9/4 92/10/4 94/11/4
f 89/12/5 93/13/5 92/10/5 91/9/5
f 90/14/6 94/11/6 92/10/6 93/13/6
f 95/15/7 98/16/7 99/17/7 101/18/7
f 96/19/8 100/20/8 99/17/8 98/16/8
f 97/21/9 101/18/9 99/17/9 100/20/9
f 102/22/10 105/23/10 106/24/10 108/25/10
f 103/26/11 107/27/11 106/24/11 105/23/11
f 104/28/12 108/25/12 106/24/12 107/27/12
f 109/29/13 112/30/13 113/31/13 115/32/13
f 110/33/14 114/34/14 113/31/14 112/30/14
f 111/35/15 115/36/15 113/37/15 114/38/15
f 116/39/16 119/40/16 120/41/16 122/42/16
f 117/43/17 121/44/17 120/41/17 119/40/17
f 118/45/18 122/46/18 120/47/18 121/48/18
f 123/49/19 126/50/19 127/51/19 129/52/19
f 124/53/20 128/54/20 127/55/20 126/56/20
f 125/57/21 129/58/21 127/59/21 128/60/21
f 130/61/22 133/62/22 134/63/22 136/64/22
f 131/65/23 135/66/23 134/67/23 133/68/23
f 132/69/24 136/70/24 134/71/24 135/72/24
f 118/45/25 130/61/25 136/64/25 122/46/25
f 122/42/26 136/70/26 132/69/26 116/39/26
f 88/8/27 118/45/27 121/48/27 91/9/27
f 91/9/28 121/44/28 117/43/28 89/12/28
f 83/7/29 90/14/29 93/13/29 87/4/29
f 87/4/30 93/13/30 89/12/30 81/1/30
f 131/65/31 124/53/31 126/56/31 135/66/31
f 135/72/32 126/50/32 123/49/32 132/69/32
f 97/21/33 103/26/33 105/23/33 101/18/33
f 101/18/34 105/23/34 102/22/34 95/15/34
f 109/29/35 117/43/35 119/40/35 112/30/35
f 112/30/36 119/40/36 116/39/36 110/33/36
f 96/19/37 125/57/37 128/60/37 100/20/37
f 100/20/38 128/54/38 124/53/38 97/21/38
f 82/5/39 96/19/39 98/16/39 86/6/39
f 86/6/40 98/16/40 95/15/40 83/7/40
f 130/61/41 104/28/41 107/27/41 133/62/41
f 133/68/42 107/27/42 103/26/42 131/65/42
f 125/57/43 111/35/43 114/38/43 129/58/43
f 129/52/44 114/34/44 110/33/44 123/49/44
f 111/35/45 82/5/45 84/2/45 115/36/45
f 115/32/46 84/2/46 81/1/46 109/29/46
f 104/28/47 88/8/47 94/11/47 108/25/47
f 108/25/48 94/11/48 90/14/48 102/22/48
f 117/43/49 109/29/49 81/1/49 89/12/49
f 90/14/50 83/7/50 95/15/50 102/22/50
f 143/73/51 125/57/51 96/19/51 147/74/51 148/75/51 144/76/51
f 147/74/51 96/19/51 82/5/51 111/35/51 125/57/51 143/73/51 137/77/51 138/78/51 142/79/51 141/80/51 140/81/51 139/82/51 146/83/51 145/84/51
f 104/28/52 130/61/52 160/85/52 159/86/52 158/87/52 157/88/52
f 160/85/52 130/61/52 118/45/52 88/8/52 104/28/52 157/88/52 151/89/52 152/90/52 153/91/52 154/92/52 150/93/52 149/94/52 156/95/52 155/96/52
f 103/26/53 97/21/53 124/53/53 131/65/53
f 132/69/54 123/49/54 110/33/54 116/39/54
f 146/97/32 139/98/32 153/99/32 152/100/32
f 153/99/31 139/98/31 140/101/31 154/102/31
f 143/103/30 144/104/30 159/105/30 160/106/30
f 155/107/29 137/108/29 143/109/29 160/110/29
f 148/111/35 147/112/35 157/113/35 158/114/35
f 147/112/36 145/115/36 151/116/36 157/113/36
f 150/117/33 141/118/33 142/119/33 149/120/33
f 149/120/34 142/119/34 138/121/34 156/122/34
f 154/102/53 140/101/53 141/118/53 150/117/53
f 145/115/54 146/97/54 152/100/54 151/116/54
f 144/104/49 148/111/49 158/114/49 159/105/49
f 156/122/50 138/121/50 137/108/50 155/107/50
usemtl 
f 161/123/54 162/123/54 164/123/54 163/123/54
f 163/123/49 164/123/49 168/123/49 167/123/49
f 167/123/50 168/123/50 166/123/50 165/123/50
f 165/123/53 166/123/53 162/123/53 161/123/53
f 163/123/52 167/123/52 165/123/52 161/123/52
f 168/123/51 164/123/51 162/123/51 166/123/51
