# Blender 5.1.0
# www.blender.org
mtllib glasses01.mtl
o 柱体.001
v 0.000000 -0.100000 -3.554749
v 0.000000 0.100000 -3.554749
v 0.195090 -0.100000 -3.524875
v 0.195090 0.100000 -3.524875
v 0.382683 -0.100000 -3.436400
v 0.382683 0.100000 -3.436400
v 0.555570 -0.100000 -3.292726
v 0.555570 0.100000 -3.292726
v 0.707107 -0.100000 -3.099373
v 0.707107 0.100000 -3.099373
v 0.831470 -0.100000 -2.863772
v 0.831470 0.100000 -2.863772
v 0.923880 -0.100000 -2.594977
v 0.923880 0.100000 -2.594977
v 0.980785 -0.100000 -2.303316
v 0.980785 0.100000 -2.303316
v 1.000000 -0.100000 -2.000000
v 1.000000 0.100000 -2.000000
v 0.980785 -0.100000 -1.696684
v 0.980785 0.100000 -1.696684
v 0.923880 -0.100000 -1.405023
v 0.923880 0.100000 -1.405023
v 0.831470 -0.100000 -1.136228
v 0.831470 0.100000 -1.136228
v 0.707107 -0.100000 -0.900627
v 0.707107 0.100000 -0.900627
v 0.555570 -0.100000 -0.707274
v 0.555570 0.100000 -0.707274
v 0.382683 -0.100000 -0.563599
v 0.382683 0.100000 -0.563599
v 0.195090 -0.100000 -0.475125
v 0.195090 0.100000 -0.475125
v 0.000000 -0.100000 -0.445251
v 0.000000 0.100000 -0.445251
v -0.195090 -0.100000 -0.475125
v -0.195090 0.100000 -0.475125
v -0.382683 -0.100000 -0.563599
v -0.382683 0.100000 -0.563599
v -0.555570 -0.100000 -0.707274
v -0.555570 0.100000 -0.707274
v -0.707107 -0.100000 -0.900627
v -0.707107 0.100000 -0.900627
v -0.831470 -0.100000 -1.136228
v -0.831470 0.100000 -1.136228
v -0.923880 -0.100000 -1.405023
v -0.923880 0.100000 -1.405023
v -0.980785 -0.100000 -1.696684
v -0.980785 0.100000 -1.696684
v -1.000000 -0.100000 -2.000000
v -1.000000 0.100000 -2.000000
v -0.980785 -0.100000 -2.303316
v -0.980785 0.100000 -2.303316
v -0.923880 -0.100000 -2.594977
v -0.923880 0.100000 -2.594977
v -0.831470 -0.100000 -2.863772
v -0.831470 0.100000 -2.863772
v -0.707107 -0.100000 -3.099373
v -0.707107 0.100000 -3.099373
v -0.555570 -0.100000 -3.292726
v -0.555570 0.100000 -3.292726
v -0.382683 -0.100000 -3.436400
v -0.382683 0.100000 -3.436400
v -0.195090 -0.100000 -3.524875
v -0.195090 0.100000 -3.524875
v -0.717671 0.100000 -2.735332
v -0.479533 0.100000 -3.105578
v -0.610329 0.100000 -2.938688
v -0.168389 0.100000 -3.305954
v 0.168389 0.100000 -3.305954
v 0.000000 0.100000 -3.331739
v -0.330308 0.100000 -3.229589
v -0.863136 0.100000 -1.989779
v -0.846551 0.100000 -2.251583
v -0.846551 0.100000 -1.727976
v -0.717671 0.100000 -1.244226
v -0.479533 0.100000 -0.873981
v -0.610329 0.100000 -1.040871
v -0.797434 0.100000 -1.476234
v -0.168389 0.100000 -0.673605
v 0.168389 0.100000 -0.673605
v 0.000000 0.100000 -0.647820
v 0.479533 0.100000 -0.873981
v 0.717671 0.100000 -1.244226
v 0.610329 0.100000 -1.040871
v 0.330308 0.100000 -0.749970
v 0.479533 0.100000 -3.105578
v 0.717671 0.100000 -2.735332
v 0.610329 0.100000 -2.938688
v 0.863136 0.100000 -1.989779
v 0.846551 0.100000 -1.727976
v 0.846551 0.100000 -2.251583
v 0.797434 0.100000 -2.503325
v -0.797434 0.100000 -2.503325
v -0.330308 0.100000 -0.749970
v 0.330308 0.100000 -3.229589
v 0.797434 0.100000 -1.476234
v 0.000000 -0.100000 -3.331739
v 0.330308 -0.100000 -3.229589
v 0.168389 -0.100000 -3.305954
v 0.610329 -0.100000 -2.938688
v 0.797434 -0.100000 -2.503325
v 0.717671 -0.100000 -2.735332
v 0.479533 -0.100000 -3.105578
v 0.330308 -0.100000 -0.749970
v 0.610329 -0.100000 -1.040871
v 0.479533 -0.100000 -0.873981
v 0.797434 -0.100000 -1.476234
v 0.863136 -0.100000 -1.989779
v 0.846551 -0.100000 -1.727976
v 0.717671 -0.100000 -1.244226
v -0.797434 -0.100000 -1.476234
v -0.610329 -0.100000 -1.040871
v -0.717671 -0.100000 -1.244226
v -0.330308 -0.100000 -0.749970
v 0.000000 -0.100000 -0.647820
v -0.168389 -0.100000 -0.673605
v -0.479533 -0.100000 -0.873981
v -0.863136 -0.100000 -1.989779
v -0.797434 -0.100000 -2.503325
v -0.846551 -0.100000 -2.251583
v -0.610329 -0.100000 -2.938688
v -0.330308 -0.100000 -3.229589
v -0.479533 -0.100000 -3.105578
v -0.717671 -0.100000 -2.735332
v 0.846551 -0.100000 -2.251583
v -0.846551 -0.100000 -1.727976
v -0.168389 -0.100000 -3.305954
v 0.168389 -0.100000 -0.673605
v 0.000000 -0.100000 0.445251
v 0.000000 0.100000 0.445251
v 0.195090 -0.100000 0.475125
v 0.195090 0.100000 0.475125
v 0.382683 -0.100000 0.563600
v 0.382683 0.100000 0.563600
v 0.555570 -0.100000 0.707274
v 0.555570 0.100000 0.707274
v 0.707107 -0.100000 0.900627
v 0.707107 0.100000 0.900627
v 0.831470 -0.100000 1.136228
v 0.831470 0.100000 1.136228
v 0.923880 -0.100000 1.405023
v 0.923880 0.100000 1.405023
v 0.980785 -0.100000 1.696684
v 0.980785 0.100000 1.696684
v 1.000000 -0.100000 2.000000
v 1.000000 0.100000 2.000000
v 0.980785 -0.100000 2.303317
v 0.980785 0.100000 2.303317
v 0.923880 -0.100000 2.594977
v 0.923880 0.100000 2.594977
v 0.831470 -0.100000 2.863772
v 0.831470 0.100000 2.863772
v 0.707107 -0.100000 3.099373
v 0.707107 0.100000 3.099373
v 0.555570 -0.100000 3.292727
v 0.555570 0.100000 3.292727
v 0.382683 -0.100000 3.436401
v 0.382683 0.100000 3.436401
v 0.195090 -0.100000 3.524875
v 0.195090 0.100000 3.524875
v 0.000000 -0.100000 3.554749
v 0.000000 0.100000 3.554749
v -0.195090 -0.100000 3.524875
v -0.195090 0.100000 3.524875
v -0.382683 -0.100000 3.436401
v -0.382683 0.100000 3.436401
v -0.555570 -0.100000 3.292727
v -0.555570 0.100000 3.292727
v -0.707107 -0.100000 3.099373
v -0.707107 0.100000 3.099373
v -0.831470 -0.100000 2.863772
v -0.831470 0.100000 2.863772
v -0.923880 -0.100000 2.594977
v -0.923880 0.100000 2.594977
v -0.980785 -0.100000 2.303317
v -0.980785 0.100000 2.303317
v -1.000000 -0.100000 2.000000
v -1.000000 0.100000 2.000000
v -0.980785 -0.100000 1.696684
v -0.980785 0.100000 1.696684
v -0.923880 -0.100000 1.405023
v -0.923880 0.100000 1.405023
v -0.831470 -0.100000 1.136228
v -0.831470 0.100000 1.136228
v -0.707107 -0.100000 0.900627
v -0.707107 0.100000 0.900627
v -0.555570 -0.100000 0.707274
v -0.555570 0.100000 0.707274
v -0.382683 -0.100000 0.563600
v -0.382683 0.100000 0.563600
v -0.195090 -0.100000 0.475125
v -0.195090 0.100000 0.475125
v -0.717671 0.100000 1.264668
v -0.479533 0.100000 0.894422
v -0.610329 0.100000 1.061312
v -0.168389 0.100000 0.694046
v 0.168389 0.100000 0.694046
v 0.000000 0.100000 0.668261
v -0.330308 0.100000 0.770411
v -0.863136 0.100000 2.010221
v -0.846551 0.100000 1.748417
v -0.846551 0.100000 2.272024
v -0.717671 0.100000 2.755774
v -0.479533 0.100000 3.126019
v -0.610329 0.100000 2.959129
v -0.797434 0.100000 2.523767
v -0.168389 0.100000 3.326395
v 0.168389 0.100000 3.326395
v 0.000000 0.100000 3.352180
v 0.479533 0.100000 3.126019
v 0.717671 0.100000 2.755774
v 0.610329 0.100000 2.959129
v 0.330308 0.100000 3.250030
v 0.479533 0.100000 0.894422
v 0.717671 0.100000 1.264668
v 0.610329 0.100000 1.061312
v 0.863136 0.100000 2.010221
v 0.846551 0.100000 2.272024
v 0.846551 0.100000 1.748417
v 0.797434 0.100000 1.496675
v -0.797434 0.100000 1.496675
v -0.330308 0.100000 3.250030
v 0.330308 0.100000 0.770411
v 0.797434 0.100000 2.523767
v 0.000000 -0.100000 0.668261
v 0.330308 -0.100000 0.770411
v 0.168389 -0.100000 0.694046
v 0.610329 -0.100000 1.061312
v 0.797434 -0.100000 1.496675
v 0.717671 -0.100000 1.264668
v 0.479533 -0.100000 0.894422
v 0.330308 -0.100000 3.250030
v 0.610329 -0.100000 2.959129
v 0.479533 -0.100000 3.126019
v 0.797434 -0.100000 2.523767
v 0.863136 -0.100000 2.010221
v 0.846551 -0.100000 2.272024
v 0.717671 -0.100000 2.755774
v -0.797434 -0.100000 2.523767
v -0.610329 -0.100000 2.959129
v -0.717671 -0.100000 2.755774
v -0.330308 -0.100000 3.250030
v 0.000000 -0.100000 3.352180
v -0.168389 -0.100000 3.326395
v -0.479533 -0.100000 3.126019
v -0.863136 -0.100000 2.010221
v -0.797434 -0.100000 1.496675
v -0.846551 -0.100000 1.748417
v -0.610329 -0.100000 1.061312
v -0.330308 -0.100000 0.770411
v -0.479533 -0.100000 0.894422
v -0.717671 -0.100000 1.264668
v 0.846551 -0.100000 1.748417
v -0.846551 -0.100000 2.272024
v -0.168389 -0.100000 0.694046
v 0.168389 -0.100000 3.326395
v 0.083958 -0.100000 -0.569285
v 0.083958 0.100000 -0.569285
v 0.083958 -0.100000 0.569285
v 0.083958 0.100000 0.569285
v -0.083958 -0.100000 -0.569285
v -0.083958 0.100000 -0.569285
v -0.083958 -0.100000 0.569285
v -0.083958 0.100000 0.569285
vn 0.1514 -0.0000 -0.9885
vn 0.4266 -0.0000 -0.9045
vn 0.6391 -0.0000 -0.7691
vn 0.7871 -0.0000 -0.6169
vn 0.8844 -0.0000 -0.4668
vn 0.9457 -0.0000 -0.3251
vn 0.9815 -0.0000 -0.1915
vn 0.9980 -0.0000 -0.0632
vn 0.9980 -0.0000 0.0632
vn 0.9815 -0.0000 0.1915
vn 0.9457 -0.0000 0.3251
vn 0.8844 -0.0000 0.4668
vn 0.7871 -0.0000 0.6169
vn 0.6391 -0.0000 0.7691
vn 0.4266 -0.0000 0.9045
vn 0.1514 -0.0000 0.9885
vn -0.1514 -0.0000 0.9885
vn -0.4266 -0.0000 0.9045
vn -0.6391 -0.0000 0.7691
vn -0.7871 -0.0000 0.6169
vn -0.8844 -0.0000 0.4668
vn -0.9457 -0.0000 0.3251
vn -0.9815 -0.0000 0.1915
vn -0.9980 -0.0000 0.0632
vn -0.9980 -0.0000 -0.0632
vn -0.9815 -0.0000 -0.1915
vn -0.9457 -0.0000 -0.3251
vn -0.8844 -0.0000 -0.4668
vn -0.7871 -0.0000 -0.6169
vn -0.6391 -0.0000 -0.7691
vn -0.0000 1.0000 -0.0000
vn -0.4266 -0.0000 -0.9045
vn -0.1514 -0.0000 -0.9885
vn -0.0000 -1.0000 -0.0000
vn 1.0000 -0.0000 -0.0000
vn -0.0000 -0.0000 1.0000
vn -1.0000 -0.0000 -0.0000
vn -0.0000 -0.0000 -1.0000
vt 1.000000 0.500000
vt 1.000000 1.000000
vt 0.968750 1.000000
vt 0.968750 0.500000
vt 0.937500 1.000000
vt 0.937500 0.500000
vt 0.906250 1.000000
vt 0.906250 0.500000
vt 0.875000 1.000000
vt 0.875000 0.500000
vt 0.843750 1.000000
vt 0.843750 0.500000
vt 0.812500 1.000000
vt 0.812500 0.500000
vt 0.781250 1.000000
vt 0.781250 0.500000
vt 0.750000 1.000000
vt 0.750000 0.500000
vt 0.718750 1.000000
vt 0.718750 0.500000
vt 0.687500 1.000000
vt 0.687500 0.500000
vt 0.656250 1.000000
vt 0.656250 0.500000
vt 0.625000 1.000000
vt 0.625000 0.500000
vt 0.593750 1.000000
vt 0.593750 0.500000
vt 0.562500 1.000000
vt 0.562500 0.500000
vt 0.531250 1.000000
vt 0.531250 0.500000
vt 0.500000 1.000000
vt 0.500000 0.500000
vt 0.468750 1.000000
vt 0.468750 0.500000
vt 0.437500 1.000000
vt 0.437500 0.500000
vt 0.406250 1.000000
vt 0.406250 0.500000
vt 0.375000 1.000000
vt 0.375000 0.500000
vt 0.343750 1.000000
vt 0.343750 0.500000
vt 0.312500 1.000000
vt 0.312500 0.500000
vt 0.281250 1.000000
vt 0.281250 0.500000
vt 0.250000 1.000000
vt 0.250000 0.500000
vt 0.218750 1.000000
vt 0.218750 0.500000
vt 0.187500 1.000000
vt 0.187500 0.500000
vt 0.156250 1.000000
vt 0.156250 0.500000
vt 0.125000 1.000000
vt 0.125000 0.500000
vt 0.093750 1.000000
vt 0.093750 0.500000
vt 0.062500 1.000000
vt 0.062500 0.500000
vt 0.341844 0.028269
vt 0.383337 0.050447
vt 0.419706 0.080294
vt 0.449553 0.116663
vt 0.471731 0.158156
vt 0.485388 0.203178
vt 0.490000 0.250000
vt 0.485388 0.296822
vt 0.471731 0.341844
vt 0.449553 0.383337
vt 0.419706 0.419706
vt 0.383337 0.449553
vt 0.341844 0.471731
vt 0.296822 0.485388
vt 0.250000 0.490000
vt 0.203178 0.485388
vt 0.158156 0.471731
vt 0.116663 0.449553
vt 0.080294 0.419706
vt 0.050447 0.383337
vt 0.028269 0.341844
vt 0.014612 0.296822
vt 0.010000 0.250000
vt 0.014612 0.203178
vt 0.028269 0.158156
vt 0.050447 0.116663
vt 0.080294 0.080294
vt 0.116663 0.050447
vt 0.158156 0.028269
vt 0.170726 0.057038
vt 0.134912 0.076181
vt 0.103521 0.101943
vt 0.077759 0.133334
vt 0.058616 0.169148
vt 0.046828 0.208009
vt 0.042847 0.248422
vt 0.046828 0.288836
vt 0.058616 0.327696
vt 0.077759 0.363510
vt 0.103521 0.394901
vt 0.134912 0.420663
vt 0.170726 0.439806
vt 0.209587 0.451595
vt 0.250000 0.455575
vt 0.290414 0.451595
vt 0.329274 0.439806
vt 0.365088 0.420663
vt 0.396479 0.394901
vt 0.422241 0.363510
vt 0.441384 0.327696
vt 0.453172 0.288836
vt 0.457153 0.248422
vt 0.453172 0.208009
vt 0.441384 0.169148
vt 0.422241 0.133334
vt 0.396479 0.101943
vt 0.365088 0.076181
vt 0.329274 0.057038
vt 0.203178 0.014612
vt 0.250000 0.010000
vt 0.296822 0.014612
vt 0.290413 0.045250
vt 0.250000 0.041270
vt 0.209587 0.045250
vt 0.031250 1.000000
vt 0.031250 0.500000
vt 0.000000 1.000000
vt 0.000000 0.500000
vt 0.634912 0.076181
vt 0.616663 0.050447
vt 0.580294 0.080294
vt 0.550447 0.116663
vt 0.528269 0.158156
vt 0.514612 0.203178
vt 0.510000 0.250000
vt 0.514612 0.296822
vt 0.528269 0.341844
vt 0.550447 0.383337
vt 0.580294 0.419706
vt 0.616663 0.449553
vt 0.658156 0.471731
vt 0.703178 0.485388
vt 0.750000 0.490000
vt 0.796822 0.485388
vt 0.841844 0.471731
vt 0.883337 0.449553
vt 0.919706 0.419706
vt 0.949553 0.383337
vt 0.971731 0.341844
vt 0.985388 0.296822
vt 0.990000 0.250000
vt 0.985388 0.203178
vt 0.971731 0.158156
vt 0.949553 0.116663
vt 0.919706 0.080294
vt 0.883337 0.050447
vt 0.841844 0.028269
vt 0.796822 0.014612
vt 0.790414 0.045250
vt 0.829274 0.057038
vt 0.865088 0.076181
vt 0.896479 0.101943
vt 0.922241 0.133334
vt 0.941384 0.169148
vt 0.953172 0.208009
vt 0.957153 0.248422
vt 0.953172 0.288836
vt 0.941384 0.327696
vt 0.922241 0.363510
vt 0.896479 0.394901
vt 0.865088 0.420663
vt 0.829274 0.439806
vt 0.790413 0.451595
vt 0.750000 0.455575
vt 0.709587 0.451595
vt 0.670726 0.439806
vt 0.634912 0.420663
vt 0.603521 0.394901
vt 0.577759 0.363510
vt 0.558616 0.327696
vt 0.546828 0.288836
vt 0.542847 0.248422
vt 0.546828 0.208009
vt 0.558616 0.169148
vt 0.577759 0.133334
vt 0.603521 0.101943
vt 0.750000 0.010000
vt 0.703178 0.014612
vt 0.658156 0.028269
vt 0.670726 0.057038
vt 0.709587 0.045250
vt 0.750000 0.041270
vt 0.968750 0.687500
vt 0.968750 0.812500
vt 1.000000 0.812500
vt 1.000000 0.687500
vt 0.937500 0.687500
vt 0.937500 0.812500
vt 0.906250 0.687500
vt 0.906250 0.812500
vt 0.875000 0.687500
vt 0.875000 0.812500
vt 0.843750 0.812500
vt 0.843750 0.687500
vt 0.812500 0.812500
vt 0.812500 0.687500
vt 0.781250 0.812500
vt 0.781250 0.687500
vt 0.750000 0.812500
vt 0.750000 0.687500
vt 0.718750 0.812500
vt 0.718750 0.687500
vt 0.687500 0.812500
vt 0.687500 0.687500
vt 0.656250 0.812500
vt 0.656250 0.687500
vt 0.625000 0.812500
vt 0.625000 0.687500
vt 0.593750 0.812500
vt 0.593750 0.687500
vt 0.562500 0.812500
vt 0.562500 0.687500
vt 0.531250 0.812500
vt 0.531250 0.687500
vt 0.500000 0.812500
vt 0.500000 0.687500
vt 0.468750 0.812500
vt 0.468750 0.687500
vt 0.437500 0.812500
vt 0.437500 0.687500
vt 0.406250 0.812500
vt 0.406250 0.687500
vt 0.375000 0.812500
vt 0.375000 0.687500
vt 0.343750 0.687500
vt 0.343750 0.812500
vt 0.312500 0.687500
vt 0.312500 0.812500
vt 0.281250 0.687500
vt 0.281250 0.812500
vt 0.250000 0.687500
vt 0.250000 0.812500
vt 0.218750 0.687500
vt 0.218750 0.812500
vt 0.187500 0.687500
vt 0.187500 0.812500
vt 0.156250 0.687500
vt 0.156250 0.812500
vt 0.125000 0.687500
vt 0.125000 0.812500
vt 0.093750 0.687500
vt 0.093750 0.812500
vt 0.062500 0.687500
vt 0.062500 0.812500
vt 0.031250 0.687500
vt 0.031250 0.812500
vt 0.000000 0.687500
vt 0.000000 0.812500
vt 0.375000 0.000000
vt 0.625000 0.000000
vt 0.625000 0.250000
vt 0.375000 0.250000
vt 0.625000 0.750000
vt 0.375000 0.750000
vt 0.125000 0.750000
vt 0.875000 0.750000
s 0
usemtl 
f 1/1/1 2/2/1 4/3/1 3/4/1
f 3/4/2 4/3/2 6/5/2 5/6/2
f 5/6/3 6/5/3 8/7/3 7/8/3
f 7/8/4 8/7/4 10/9/4 9/10/4
f 9/10/5 10/9/5 12/11/5 11/12/5
f 11/12/6 12/11/6 14/13/6 13/14/6
f 13/14/7 14/13/7 16/15/7 15/16/7
f 15/16/8 16/15/8 18/17/8 17/18/8
f 17/18/9 18/17/9 20/19/9 19/20/9
f 19/20/10 20/19/10 22/21/10 21/22/10
f 21/22/11 22/21/11 24/23/11 23/24/11
f 23/24/12 24/23/12 26/25/12 25/26/12
f 25/26/13 26/25/13 28/27/13 27/28/13
f 27/28/14 28/27/14 30/29/14 29/30/14
f 29/30/15 30/29/15 32/31/15 31/32/15
f 31/32/16 32/31/16 34/33/16 33/34/16
f 33/34/17 34/33/17 36/35/17 35/36/17
f 35/36/18 36/35/18 38/37/18 37/38/18
f 37/38/19 38/37/19 40/39/19 39/40/19
f 39/40/20 40/39/20 42/41/20 41/42/20
f 41/42/21 42/41/21 44/43/21 43/44/21
f 43/44/22 44/43/22 46/45/22 45/46/22
f 45/46/23 46/45/23 48/47/23 47/48/23
f 47/48/24 48/47/24 50/49/24 49/50/24
f 49/50/25 50/49/25 52/51/25 51/52/25
f 51/52/26 52/51/26 54/53/26 53/54/26
f 53/54/27 54/53/27 56/55/27 55/56/27
f 55/56/28 56/55/28 58/57/28 57/58/28
f 57/58/29 58/57/29 60/59/29 59/60/29
f 59/60/30 60/59/30 62/61/30 61/62/30
f 30/63/31 28/64/31 26/65/31 24/66/31 22/67/31 20/68/31 18/69/31 16/70/31 14/71/31 12/72/31 10/73/31 8/74/31 6/75/31 4/76/31 2/77/31 64/78/31 62/79/31 60/80/31 58/81/31 56/82/31 54/83/31 52/84/31 50/85/31 48/86/31 46/87/31 44/88/31 42/89/31 40/90/31 38/91/31 94/92/31 76/93/31 77/94/31 75/95/31 78/96/31 74/97/31 72/98/31 73/99/31 93/100/31 65/101/31 67/102/31 66/103/31 71/104/31 68/105/31 70/106/31 69/107/31 95/108/31 86/109/31 88/110/31 87/111/31 92/112/31 91/113/31 89/114/31 90/115/31 96/116/31 83/117/31 84/118/31 82/119/31 85/120/31
f 94/92/31 38/91/31 36/121/31 34/122/31 32/123/31 30/63/31 85/120/31 80/124/31 81/125/31 79/126/31
f 61/62/32 62/61/32 64/127/32 63/128/32
f 63/128/33 64/127/33 2/129/33 1/130/33
f 117/131/34 39/132/34 41/133/34 43/134/34 45/135/34 47/136/34 49/137/34 51/138/34 53/139/34 55/140/34 57/141/34 59/142/34 61/143/34 63/144/34 1/145/34 3/146/34 5/147/34 7/148/34 9/149/34 11/150/34 13/151/34 15/152/34 17/153/34 19/154/34 21/155/34 23/156/34 25/157/34 27/158/34 29/159/34 31/160/34 128/161/34 104/162/34 106/163/34 105/164/34 110/165/34 107/166/34 109/167/34 108/168/34 125/169/34 101/170/34 102/171/34 100/172/34 103/173/34 98/174/34 99/175/34 97/176/34 127/177/34 122/178/34 123/179/34 121/180/34 124/181/34 119/182/34 120/183/34 118/184/34 126/185/34 111/186/34 113/187/34 112/188/34
f 128/161/34 31/160/34 33/189/34 35/190/34 37/191/34 39/132/34 117/131/34 114/192/34 116/193/34 115/194/34
f 99/195/17 69/196/17 70/197/17 97/198/17
f 98/199/18 95/200/18 69/196/18 99/195/18
f 103/201/19 86/202/19 95/200/19 98/199/19
f 100/203/20 88/204/20 86/202/20 103/201/20
f 87/205/21 88/204/21 100/203/21 102/206/21
f 92/207/22 87/205/22 102/206/22 101/208/22
f 91/209/23 92/207/23 101/208/23 125/210/23
f 89/211/24 91/209/24 125/210/24 108/212/24
f 90/213/25 89/211/25 108/212/25 109/214/25
f 96/215/26 90/213/26 109/214/26 107/216/26
f 83/217/27 96/215/27 107/216/27 110/218/27
f 84/219/28 83/217/28 110/218/28 105/220/28
f 82/221/29 84/219/29 105/220/29 106/222/29
f 85/223/30 82/221/30 106/222/30 104/224/30
f 80/225/32 85/223/32 104/224/32 128/226/32
f 81/227/33 80/225/33 128/226/33 115/228/33
f 79/229/1 81/227/1 115/228/1 116/230/1
f 94/231/2 79/229/2 116/230/2 114/232/2
f 76/233/3 94/231/3 114/232/3 117/234/3
f 77/235/4 76/233/4 117/234/4 112/236/4
f 113/237/5 75/238/5 77/235/5 112/236/5
f 111/239/6 78/240/6 75/238/6 113/237/6
f 126/241/7 74/242/7 78/240/7 111/239/7
f 118/243/8 72/244/8 74/242/8 126/241/8
f 120/245/9 73/246/9 72/244/9 118/243/9
f 119/247/10 93/248/10 73/246/10 120/245/10
f 124/249/11 65/250/11 93/248/11 119/247/11
f 121/251/12 67/252/12 65/250/12 124/249/12
f 123/253/13 66/254/13 67/252/13 121/251/13
f 122/255/14 71/256/14 66/254/14 123/253/14
f 127/257/15 68/258/15 71/256/15 122/255/15
f 97/259/16 70/260/16 68/258/16 127/257/16
f 129/1/1 130/2/1 132/3/1 131/4/1
f 131/4/2 132/3/2 134/5/2 133/6/2
f 133/6/3 134/5/3 136/7/3 135/8/3
f 135/8/4 136/7/4 138/9/4 137/10/4
f 137/10/5 138/9/5 140/11/5 139/12/5
f 139/12/6 140/11/6 142/13/6 141/14/6
f 141/14/7 142/13/7 144/15/7 143/16/7
f 143/16/8 144/15/8 146/17/8 145/18/8
f 145/18/9 146/17/9 148/19/9 147/20/9
f 147/20/10 148/19/10 150/21/10 149/22/10
f 149/22/11 150/21/11 152/23/11 151/24/11
f 151/24/12 152/23/12 154/25/12 153/26/12
f 153/26/13 154/25/13 156/27/13 155/28/13
f 155/28/14 156/27/14 158/29/14 157/30/14
f 157/30/15 158/29/15 160/31/15 159/32/15
f 159/32/16 160/31/16 162/33/16 161/34/16
f 161/34/17 162/33/17 164/35/17 163/36/17
f 163/36/18 164/35/18 166/37/18 165/38/18
f 165/38/19 166/37/19 168/39/19 167/40/19
f 167/40/20 168/39/20 170/41/20 169/42/20
f 169/42/21 170/41/21 172/43/21 171/44/21
f 171/44/22 172/43/22 174/45/22 173/46/22
f 173/46/23 174/45/23 176/47/23 175/48/23
f 175/48/24 176/47/24 178/49/24 177/50/24
f 177/50/25 178/49/25 180/51/25 179/52/25
f 179/52/26 180/51/26 182/53/26 181/54/26
f 181/54/27 182/53/27 184/55/27 183/56/27
f 183/56/28 184/55/28 186/57/28 185/58/28
f 185/58/29 186/57/29 188/59/29 187/60/29
f 187/60/30 188/59/30 190/61/30 189/62/30
f 158/63/31 156/64/31 154/65/31 152/66/31 150/67/31 148/68/31 146/69/31 144/70/31 142/71/31 140/72/31 138/73/31 136/74/31 134/75/31 132/76/31 130/77/31 192/78/31 190/79/31 188/80/31 186/81/31 184/82/31 182/83/31 180/84/31 178/85/31 176/86/31 174/87/31 172/88/31 170/89/31 168/90/31 166/91/31 222/92/31 204/93/31 205/94/31 203/95/31 206/96/31 202/97/31 200/98/31 201/99/31 221/100/31 193/101/31 195/102/31 194/103/31 199/104/31 196/105/31 198/106/31 197/107/31 223/108/31 214/109/31 216/110/31 215/111/31 220/112/31 219/113/31 217/114/31 218/115/31 224/116/31 211/117/31 212/118/31 210/119/31 213/120/31
f 222/92/31 166/91/31 164/121/31 162/122/31 160/123/31 158/63/31 213/120/31 208/124/31 209/125/31 207/126/31
f 189/62/32 190/61/32 192/127/32 191/128/32
f 191/128/33 192/127/33 130/129/33 129/130/33
f 245/131/34 167/132/34 169/133/34 171/134/34 173/135/34 175/136/34 177/137/34 179/138/34 181/139/34 183/140/34 185/141/34 187/142/34 189/143/34 191/144/34 129/145/34 131/146/34 133/147/34 135/148/34 137/149/34 139/150/34 141/151/34 143/152/34 145/153/34 147/154/34 149/155/34 151/156/34 153/157/34 155/158/34 157/159/34 159/160/34 256/161/34 232/162/34 234/163/34 233/164/34 238/165/34 235/166/34 237/167/34 236/168/34 253/169/34 229/170/34 230/171/34 228/172/34 231/173/34 226/174/34 227/175/34 225/176/34 255/177/34 250/178/34 251/179/34 249/180/34 252/181/34 247/182/34 248/183/34 246/184/34 254/185/34 239/186/34 241/187/34 240/188/34
f 256/161/34 159/160/34 161/189/34 163/190/34 165/191/34 167/132/34 245/131/34 242/192/34 244/193/34 243/194/34
f 227/195/17 197/196/17 198/197/17 225/198/17
f 226/199/18 223/200/18 197/196/18 227/195/18
f 231/201/19 214/202/19 223/200/19 226/199/19
f 228/203/20 216/204/20 214/202/20 231/201/20
f 215/205/21 216/204/21 228/203/21 230/206/21
f 220/207/22 215/205/22 230/206/22 229/208/22
f 219/209/23 220/207/23 229/208/23 253/210/23
f 217/211/24 219/209/24 253/210/24 236/212/24
f 218/213/25 217/211/25 236/212/25 237/214/25
f 224/215/26 218/213/26 237/214/26 235/216/26
f 211/217/27 224/215/27 235/216/27 238/218/27
f 212/219/28 211/217/28 238/218/28 233/220/28
f 210/221/29 212/219/29 233/220/29 234/222/29
f 213/223/30 210/221/30 234/222/30 232/224/30
f 208/225/32 213/223/32 232/224/32 256/226/32
f 209/227/33 208/225/33 256/226/33 243/228/33
f 207/229/1 209/227/1 243/228/1 244/230/1
f 222/231/2 207/229/2 244/230/2 242/232/2
f 204/233/3 222/231/3 242/232/3 245/234/3
f 205/235/4 204/233/4 245/234/4 240/236/4
f 241/237/5 203/238/5 205/235/5 240/236/5
f 239/239/6 206/240/6 203/238/6 241/237/6
f 254/241/7 202/242/7 206/240/7 239/239/7
f 246/243/8 200/244/8 202/242/8 254/241/8
f 248/245/9 201/246/9 200/244/9 246/243/9
f 247/247/10 221/248/10 201/246/10 248/245/10
f 252/249/11 193/250/11 221/248/11 247/247/11
f 249/251/12 195/252/12 193/250/12 252/249/12
f 251/253/13 194/254/13 195/252/13 249/251/13
f 250/255/14 199/256/14 194/254/14 251/253/14
f 255/257/15 196/258/15 199/256/15 250/255/15
f 225/259/16 198/260/16 196/258/16 255/257/16
f 257/261/35 258/262/35 260/263/35 259/264/35
f 259/264/36 260/263/36 264/26/36 263/42/36
f 263/42/37 264/26/37 262/265/37 261/266/37
f 261/266/38 262/265/38 258/25/38 257/41/38
f 259/58/34 263/42/34 261/266/34 257/267/34
f 264/26/31 260/10/31 258/268/31 262/265/31
