# Blender 5.1.0
# www.blender.org
mtllib hat03.mtl
o 柱体.001
v 0.000000 -0.290000 -2.000000
v 0.390181 -0.290000 -1.961571
v 0.765367 -0.290000 -1.847759
v 1.111140 -0.290000 -1.662939
v 1.414214 -0.290000 -1.414214
v 1.662939 -0.290000 -1.111140
v 1.847759 -0.290000 -0.765367
v 1.961571 -0.290000 -0.390181
v 2.000000 -0.290000 0.000000
v 1.961571 -0.290000 0.390181
v 1.847759 -0.290000 0.765367
v 1.662939 -0.290000 1.111140
v 1.414214 -0.290000 1.414214
v 1.111140 -0.290000 1.662939
v 0.765367 -0.290000 1.847759
v 0.390181 -0.290000 1.961571
v 0.000000 -0.290000 2.000000
v -0.390181 -0.290000 1.961571
v -0.765367 -0.290000 1.847759
v -1.111140 -0.290000 1.662939
v -1.414214 -0.290000 1.414214
v -1.662939 -0.290000 1.111140
v -1.847759 -0.290000 0.765367
v -1.961571 -0.290000 0.390181
v -2.000000 -0.290000 0.000000
v -1.961571 -0.290000 -0.390181
v -1.847759 -0.290000 -0.765367
v -1.662939 -0.290000 -1.111140
v -1.414214 -0.290000 -1.414214
v -1.111140 -0.290000 -1.662939
v -0.765367 -0.290000 -1.847759
v -0.390181 -0.290000 -1.961571
v 0.195090 -0.290000 -1.980785
v 0.000000 -0.390000 -2.000000
v 0.390181 -0.390000 -1.961571
v 0.577774 -0.290000 -1.904665
v 0.765367 -0.390000 -1.847759
v 0.938254 -0.290000 -1.755349
v 1.111140 -0.390000 -1.662939
v 1.262677 -0.290000 -1.538576
v 1.414214 -0.390000 -1.414214
v 1.538576 -0.290000 -1.262677
v 1.662939 -0.390000 -1.111140
v 1.755349 -0.290000 -0.938254
v 1.847759 -0.390000 -0.765367
v 1.904665 -0.290000 -0.577774
v 1.961571 -0.390000 -0.390181
v 1.980785 -0.290000 -0.195090
v 2.000000 -0.390000 0.000000
v 1.980785 -0.290000 0.195090
v 1.961571 -0.390000 0.390181
v 1.904665 -0.290000 0.577774
v 1.847759 -0.390000 0.765367
v 1.755349 -0.290000 0.938254
v 1.662939 -0.390000 1.111140
v 1.538576 -0.290000 1.262677
v 1.414214 -0.390000 1.414214
v 1.262677 -0.290000 1.538576
v 1.111140 -0.390000 1.662939
v 0.938254 -0.290000 1.755349
v 0.765367 -0.390000 1.847759
v 0.577774 -0.290000 1.904665
v 0.390181 -0.390000 1.961571
v 0.195090 -0.290000 1.980785
v 0.000000 -0.390000 2.000000
v -0.195090 -0.290000 1.980785
v -0.390181 -0.390000 1.961571
v -0.577774 -0.290000 1.904665
v -0.765367 -0.390000 1.847759
v -0.938254 -0.290000 1.755349
v -1.111140 -0.390000 1.662939
v -1.262677 -0.290000 1.538576
v -1.414214 -0.390000 1.414214
v -1.538576 -0.290000 1.262677
v -1.662939 -0.390000 1.111140
v -1.755349 -0.290000 0.938254
v -1.847759 -0.390000 0.765367
v -1.904665 -0.290000 0.577774
v -1.961571 -0.390000 0.390181
v -1.980785 -0.290000 0.195090
v -2.000000 -0.390000 0.000000
v -1.980785 -0.290000 -0.195090
v -1.961571 -0.390000 -0.390181
v -1.904665 -0.290000 -0.577774
v -1.847759 -0.390000 -0.765367
v -1.755349 -0.290000 -0.938254
v -1.662939 -0.390000 -1.111140
v -1.538576 -0.290000 -1.262677
v -1.414214 -0.390000 -1.414214
v -1.262677 -0.290000 -1.538576
v -1.111140 -0.390000 -1.662939
v -0.938254 -0.290000 -1.755349
v -0.765367 -0.390000 -1.847759
v -0.577774 -0.290000 -1.904665
v -0.390181 -0.390000 -1.961571
v -0.195090 -0.290000 -1.980785
v -0.195090 -0.390000 -1.980785
v -0.577774 -0.390000 -1.904665
v -0.938254 -0.390000 -1.755349
v -1.262677 -0.390000 -1.538576
v -1.538576 -0.390000 -1.262677
v -1.755349 -0.390000 -0.938254
v -1.904665 -0.390000 -0.577774
v -1.980785 -0.390000 -0.195090
v -1.980785 -0.390000 0.195090
v -1.904665 -0.390000 0.577774
v -1.755349 -0.390000 0.938254
v -1.538576 -0.390000 1.262677
v -1.262677 -0.390000 1.538576
v -0.938254 -0.390000 1.755349
v -0.577774 -0.390000 1.904665
v -0.195090 -0.390000 1.980785
v 0.195090 -0.390000 1.980785
v 0.577774 -0.390000 1.904665
v 0.938254 -0.390000 1.755349
v 1.262677 -0.390000 1.538576
v 1.538576 -0.390000 1.262677
v 1.755349 -0.390000 0.938254
v 1.904665 -0.390000 0.577774
v 1.980785 -0.390000 0.195090
v 1.980785 -0.390000 -0.195090
v 1.904665 -0.390000 -0.577774
v 1.755349 -0.390000 -0.938254
v 1.538576 -0.390000 -1.262677
v 1.262677 -0.390000 -1.538576
v 0.938254 -0.390000 -1.755349
v 0.577774 -0.390000 -1.904665
v 0.195090 -0.390000 -1.980785
v 0.000000 1.685194 -1.000000
v 0.195090 1.685194 -0.980785
v 0.382683 1.685194 -0.923880
v 0.555570 1.685194 -0.831470
v 0.707107 1.685194 -0.707107
v 0.831470 1.685194 -0.555570
v 0.923880 1.685194 -0.382683
v 0.980785 1.685194 -0.195090
v 1.000000 1.685194 0.000000
v 0.980785 1.685194 0.195090
v 0.923880 1.685194 0.382683
v 0.831470 1.685194 0.555570
v 0.707107 1.685194 0.707107
v 0.555570 1.685194 0.831470
v 0.382683 1.685194 0.923880
v 0.195090 1.685194 0.980785
v 0.000000 1.685194 1.000000
v -0.195090 1.685194 0.980785
v -0.382683 1.685194 0.923880
v -0.555570 1.685194 0.831470
v -0.707107 1.685194 0.707107
v -0.831470 1.685194 0.555570
v -0.923880 1.685194 0.382683
v -0.980785 1.685194 0.195090
v -1.000000 1.685194 0.000000
v -0.980785 1.685194 -0.195090
v -0.923880 1.685194 -0.382683
v -0.831470 1.685194 -0.555570
v -0.707107 1.685194 -0.707107
v -0.555570 1.685194 -0.831470
v -0.382683 1.685194 -0.923880
v -0.195090 1.685194 -0.980785
v 0.097545 1.685194 -0.990393
v 0.000000 -0.379567 -1.402916
v 0.273695 -0.379567 -1.375959
v 0.288887 1.685194 -0.952332
v 0.536873 -0.379567 -1.296125
v 0.469127 1.685194 -0.877675
v 0.779418 -0.379567 -1.166482
v 0.631338 1.685194 -0.769288
v 0.992011 -0.379567 -0.992011
v 0.769288 1.685194 -0.631338
v 1.166482 -0.379567 -0.779418
v 0.877675 1.685194 -0.469127
v 1.296125 -0.379567 -0.536873
v 0.952332 1.685194 -0.288887
v 1.375959 -0.379567 -0.273695
v 0.990393 1.685194 -0.097545
v 1.402916 -0.379567 0.000000
v 0.990393 1.685194 0.097545
v 1.375959 -0.379567 0.273695
v 0.952332 1.685194 0.288887
v 1.296125 -0.379567 0.536873
v 0.877675 1.685194 0.469127
v 1.166482 -0.379567 0.779418
v 0.769288 1.685194 0.631338
v 0.992011 -0.379567 0.992011
v 0.631338 1.685194 0.769288
v 0.779418 -0.379567 1.166482
v 0.469127 1.685194 0.877675
v 0.536873 -0.379567 1.296125
v 0.288887 1.685194 0.952332
v 0.273695 -0.379567 1.375959
v 0.097545 1.685194 0.990393
v 0.000000 -0.379567 1.402916
v -0.097545 1.685194 0.990393
v -0.273695 -0.379567 1.375959
v -0.288887 1.685194 0.952332
v -0.536873 -0.379567 1.296125
v -0.469127 1.685194 0.877675
v -0.779418 -0.379567 1.166482
v -0.631338 1.685194 0.769288
v -0.992011 -0.379567 0.992011
v -0.769288 1.685194 0.631338
v -1.166482 -0.379567 0.779418
v -0.877675 1.685194 0.469127
v -1.296125 -0.379567 0.536873
v -0.952332 1.685194 0.288887
v -1.375959 -0.379567 0.273695
v -0.990393 1.685194 0.097545
v -1.402916 -0.379567 0.000000
v -0.990393 1.685194 -0.097545
v -1.375959 -0.379567 -0.273695
v -0.952332 1.685194 -0.288887
v -1.296125 -0.379567 -0.536873
v -0.877675 1.685194 -0.469127
v -1.166482 -0.379567 -0.779418
v -0.769288 1.685194 -0.631338
v -0.992011 -0.379567 -0.992011
v -0.631338 1.685194 -0.769288
v -0.779418 -0.379567 -1.166482
v -0.469127 1.685194 -0.877675
v -0.536873 -0.379567 -1.296125
v -0.288887 1.685194 -0.952332
v -0.273695 -0.379567 -1.375959
v -0.097545 1.685194 -0.990393
v -0.135911 -0.391415 -1.379923
v -0.402509 -0.391415 -1.326894
v -0.653653 -0.391385 -1.222899
v -0.879650 -0.391415 -1.071856
v -1.071856 -0.391415 -0.879650
v -1.222899 -0.391385 -0.653653
v -1.326894 -0.391415 -0.402509
v -1.379923 -0.391415 -0.135911
v -1.379923 -0.391415 0.135911
v -1.326894 -0.391415 0.402509
v -1.222899 -0.391385 0.653653
v -1.071856 -0.391415 0.879650
v -0.879650 -0.391415 1.071856
v -0.653653 -0.391385 1.222899
v -0.402509 -0.391415 1.326894
v -0.135911 -0.391415 1.379923
v 0.135911 -0.391415 1.379923
v 0.402509 -0.391415 1.326894
v 0.653653 -0.391385 1.222899
v 0.879650 -0.391415 1.071856
v 1.071856 -0.391415 0.879650
v 1.222899 -0.391385 0.653653
v 1.326894 -0.391415 0.402509
v 1.379923 -0.391415 0.135911
v 1.379923 -0.391415 -0.135911
v 1.326894 -0.391415 -0.402509
v 1.222899 -0.391385 -0.653653
v 1.071856 -0.391415 -0.879650
v 0.879650 -0.391415 -1.071856
v 0.653653 -0.391385 -1.222899
v 0.402509 -0.391415 -1.326894
v 0.135911 -0.391415 -1.379923
v 0.000000 -0.379567 -1.402916
v 0.273695 -0.379567 -1.375959
v 0.536873 -0.379567 -1.296125
v 0.779418 -0.379567 -1.166482
v 0.992011 -0.379567 -0.992011
v 1.166482 -0.379567 -0.779418
v 1.296125 -0.379567 -0.536873
v 1.375959 -0.379567 -0.273695
v 1.402916 -0.379567 0.000000
v 1.375959 -0.379567 0.273695
v 1.296125 -0.379567 0.536873
v 1.166482 -0.379567 0.779418
v 0.992011 -0.379567 0.992011
v 0.779418 -0.379567 1.166482
v 0.536873 -0.379567 1.296125
v 0.273695 -0.379567 1.375959
v 0.000000 -0.379567 1.402916
v -0.273695 -0.379567 1.375959
v -0.536873 -0.379567 1.296125
v -0.779418 -0.379567 1.166482
v -0.992011 -0.379567 0.992011
v -1.166482 -0.379567 0.779418
v -1.296125 -0.379567 0.536873
v -1.375959 -0.379567 0.273695
v -1.402916 -0.379567 0.000000
v -1.375959 -0.379567 -0.273695
v -1.296125 -0.379567 -0.536873
v -1.166482 -0.379567 -0.779418
v -0.992011 -0.379567 -0.992011
v -0.779418 -0.379567 -1.166482
v -0.536873 -0.379567 -1.296125
v -0.273695 -0.379567 -1.375959
v -0.135911 -0.391415 -1.379923
v -0.402509 -0.391415 -1.326894
v -0.653653 -0.391385 -1.222899
v -0.879650 -0.391415 -1.071856
v -1.071856 -0.391415 -0.879650
v -1.222899 -0.391385 -0.653653
v -1.326894 -0.391415 -0.402509
v -1.379923 -0.391415 -0.135911
v -1.379923 -0.391415 0.135911
v -1.326894 -0.391415 0.402509
v -1.222899 -0.391385 0.653653
v -1.071856 -0.391415 0.879650
v -0.879650 -0.391415 1.071856
v -0.653653 -0.391385 1.222899
v -0.402509 -0.391415 1.326894
v -0.135911 -0.391415 1.379923
v 0.135911 -0.391415 1.379923
v 0.402509 -0.391415 1.326894
v 0.653653 -0.391385 1.222899
v 0.879650 -0.391415 1.071856
v 1.071856 -0.391415 0.879650
v 1.222899 -0.391385 0.653653
v 1.326894 -0.391415 0.402509
v 1.379923 -0.391415 0.135911
v 1.379923 -0.391415 -0.135911
v 1.326894 -0.391415 -0.402509
v 1.222899 -0.391385 -0.653653
v 1.071856 -0.391415 -0.879650
v 0.879650 -0.391415 -1.071856
v 0.653653 -0.391385 -1.222899
v 0.402509 -0.391415 -1.326894
v 0.135911 -0.391415 -1.379923
vn 0.0980 -0.0000 -0.9952
vn 0.2903 -0.0000 -0.9569
vn 0.4714 -0.0000 -0.8819
vn 0.6344 -0.0000 -0.7730
vn 0.7730 -0.0000 -0.6344
vn 0.8819 -0.0000 -0.4714
vn 0.9569 -0.0000 -0.2903
vn 0.9952 -0.0000 -0.0980
vn 0.9952 -0.0000 0.0980
vn 0.9569 -0.0000 0.2903
vn 0.8819 -0.0000 0.4714
vn 0.7730 -0.0000 0.6344
vn 0.6344 -0.0000 0.7730
vn 0.4714 -0.0000 0.8819
vn 0.2903 -0.0000 0.9569
vn 0.0980 -0.0000 0.9952
vn -0.0980 -0.0000 0.9952
vn -0.2903 -0.0000 0.9569
vn -0.4714 -0.0000 0.8819
vn -0.6344 -0.0000 0.7730
vn -0.7730 -0.0000 0.6344
vn -0.8819 -0.0000 0.4714
vn -0.9569 -0.0000 0.2903
vn -0.9952 -0.0000 0.0980
vn -0.9952 -0.0000 -0.0980
vn -0.9569 -0.0000 -0.2903
vn -0.8819 -0.0000 -0.4714
vn -0.7730 -0.0000 -0.6344
vn -0.6344 -0.0000 -0.7730
vn -0.4714 -0.0000 -0.8819
vn -0.0000 1.0000 -0.0000
vn -0.2903 -0.0000 -0.9569
vn -0.0980 -0.0000 -0.9952
vn -0.0000 -1.0000 -0.0000
vn 0.0472 0.1872 -0.9812
vn 0.2377 0.1872 -0.9531
vn 0.4192 0.1873 -0.8884
vn 0.5843 0.1872 -0.7896
vn 0.7271 0.1872 -0.6605
vn 0.8421 0.1873 -0.5058
vn 0.9245 0.1872 -0.3319
vn 0.9715 0.1872 -0.1452
vn 0.9812 0.1872 0.0472
vn 0.9531 0.1872 0.2377
vn 0.8884 0.1873 0.4192
vn 0.7896 0.1872 0.5843
vn 0.6605 0.1872 0.7271
vn 0.5058 0.1873 0.8421
vn 0.3319 0.1872 0.9245
vn 0.1452 0.1872 0.9715
vn -0.0472 0.1872 0.9812
vn -0.2377 0.1872 0.9531
vn -0.4192 0.1873 0.8884
vn -0.5843 0.1872 0.7896
vn -0.7271 0.1872 0.6605
vn -0.8421 0.1873 0.5058
vn -0.9245 0.1872 0.3319
vn -0.9715 0.1872 0.1452
vn -0.9812 0.1872 -0.0472
vn -0.9531 0.1872 -0.2377
vn -0.8884 0.1873 -0.4192
vn -0.7896 0.1872 -0.5843
vn -0.6605 0.1872 -0.7271
vn -0.5058 0.1873 -0.8421
vn -0.3319 0.1872 -0.9245
vn -0.1452 0.1872 -0.9715
vn -0.0472 0.1872 -0.9812
vn -0.2377 0.1872 -0.9531
vn -0.4192 0.1873 -0.8884
vn -0.5843 0.1872 -0.7896
vn -0.7271 0.1872 -0.6605
vn -0.8421 0.1873 -0.5058
vn -0.9245 0.1872 -0.3319
vn -0.9715 0.1872 -0.1452
vn -0.9812 0.1872 0.0472
vn -0.9531 0.1872 0.2377
vn -0.8884 0.1873 0.4192
vn -0.7896 0.1872 0.5843
vn -0.6605 0.1872 0.7271
vn -0.5058 0.1873 0.8421
vn -0.3319 0.1872 0.9245
vn -0.1452 0.1872 0.9715
vn 0.0472 0.1872 0.9812
vn 0.2377 0.1872 0.9531
vn 0.4192 0.1873 0.8884
vn 0.5843 0.1872 0.7896
vn 0.7271 0.1872 0.6605
vn 0.8421 0.1873 0.5058
vn 0.9245 0.1872 0.3319
vn 0.9715 0.1872 0.1452
vn 0.9812 0.1872 -0.0472
vn 0.9531 0.1872 -0.2377
vn 0.8884 0.1873 -0.4192
vn 0.7896 0.1872 -0.5843
vn 0.6605 0.1872 -0.7271
vn 0.5058 0.1873 -0.8421
vn 0.3319 0.1872 -0.9245
vn 0.1452 0.1872 -0.9715
vt 0.984375 0.750000
vt 0.984375 1.000000
vt 0.968750 1.000000
vt 0.968750 0.750000
vt 0.953125 0.750000
vt 0.953125 1.000000
vt 0.937500 1.000000
vt 0.937500 0.750000
vt 0.921875 0.750000
vt 0.921875 1.000000
vt 0.906250 1.000000
vt 0.906250 0.750000
vt 0.890625 0.750000
vt 0.890625 1.000000
vt 0.875000 1.000000
vt 0.875000 0.750000
vt 0.859375 0.750000
vt 0.859375 1.000000
vt 0.843750 1.000000
vt 0.843750 0.750000
vt 0.828125 0.750000
vt 0.828125 1.000000
vt 0.812500 1.000000
vt 0.812500 0.750000
vt 0.796875 0.750000
vt 0.796875 1.000000
vt 0.781250 1.000000
vt 0.781250 0.750000
vt 0.765625 0.750000
vt 0.765625 1.000000
vt 0.750000 1.000000
vt 0.750000 0.750000
vt 0.734375 0.750000
vt 0.734375 1.000000
vt 0.718750 1.000000
vt 0.718750 0.750000
vt 0.703125 0.750000
vt 0.703125 1.000000
vt 0.687500 1.000000
vt 0.687500 0.750000
vt 0.671875 0.750000
vt 0.671875 1.000000
vt 0.656250 1.000000
vt 0.656250 0.750000
vt 0.640625 0.750000
vt 0.640625 1.000000
vt 0.625000 1.000000
vt 0.625000 0.750000
vt 0.609375 0.750000
vt 0.609375 1.000000
vt 0.593750 1.000000
vt 0.593750 0.750000
vt 0.578125 0.750000
vt 0.578125 1.000000
vt 0.562500 1.000000
vt 0.562500 0.750000
vt 0.546875 0.750000
vt 0.546875 1.000000
vt 0.531250 1.000000
vt 0.531250 0.750000
vt 0.515625 0.750000
vt 0.515625 1.000000
vt 0.500000 1.000000
vt 0.500000 0.750000
vt 0.484375 0.750000
vt 0.484375 1.000000
vt 0.468750 1.000000
vt 0.468750 0.750000
vt 0.453125 0.750000
vt 0.453125 1.000000
vt 0.437500 1.000000
vt 0.437500 0.750000
vt 0.421875 0.750000
vt 0.421875 1.000000
vt 0.406250 1.000000
vt 0.406250 0.750000
vt 0.390625 0.750000
vt 0.390625 1.000000
vt 0.375000 1.000000
vt 0.375000 0.750000
vt 0.359375 0.750000
vt 0.359375 1.000000
vt 0.343750 1.000000
vt 0.343750 0.750000
vt 0.328125 0.750000
vt 0.328125 1.000000
vt 0.312500 1.000000
vt 0.312500 0.750000
vt 0.296875 0.750000
vt 0.296875 1.000000
vt 0.281250 1.000000
vt 0.281250 0.750000
vt 0.265625 0.750000
vt 0.265625 1.000000
vt 0.250000 1.000000
vt 0.250000 0.750000
vt 0.234375 0.750000
vt 0.234375 1.000000
vt 0.218750 1.000000
vt 0.218750 0.750000
vt 0.203125 0.750000
vt 0.203125 1.000000
vt 0.187500 1.000000
vt 0.187500 0.750000
vt 0.171875 0.750000
vt 0.171875 1.000000
vt 0.156250 1.000000
vt 0.156250 0.750000
vt 0.140625 0.750000
vt 0.140625 1.000000
vt 0.125000 1.000000
vt 0.125000 0.750000
vt 0.109375 0.750000
vt 0.109375 1.000000
vt 0.093750 1.000000
vt 0.093750 0.750000
vt 0.078125 0.750000
vt 0.078125 1.000000
vt 0.062500 1.000000
vt 0.062500 0.750000
vt 0.296822 0.485388
vt 0.273411 0.487694
vt 0.250000 0.490000
vt 0.226589 0.487694
vt 0.203178 0.485388
vt 0.180667 0.478560
vt 0.158156 0.471731
vt 0.137410 0.460642
vt 0.116663 0.449553
vt 0.098479 0.434629
vt 0.080294 0.419706
vt 0.065371 0.401521
vt 0.050447 0.383337
vt 0.039358 0.362590
vt 0.028269 0.341844
vt 0.021440 0.319333
vt 0.014612 0.296822
vt 0.012306 0.273411
vt 0.010000 0.250000
vt 0.012306 0.226589
vt 0.014612 0.203178
vt 0.021440 0.180667
vt 0.028269 0.158156
vt 0.039358 0.137410
vt 0.050447 0.116663
vt 0.065371 0.098479
vt 0.080294 0.080294
vt 0.098479 0.065371
vt 0.116663 0.050447
vt 0.137410 0.039358
vt 0.158156 0.028269
vt 0.180667 0.021440
vt 0.203178 0.014612
vt 0.226589 0.012306
vt 0.250000 0.010000
vt 0.273411 0.012306
vt 0.296822 0.014612
vt 0.319333 0.021440
vt 0.341844 0.028269
vt 0.362590 0.039358
vt 0.383337 0.050447
vt 0.401521 0.065371
vt 0.419706 0.080294
vt 0.434629 0.098479
vt 0.449553 0.116663
vt 0.460642 0.137410
vt 0.471731 0.158156
vt 0.478560 0.180667
vt 0.485388 0.203178
vt 0.487694 0.226589
vt 0.490000 0.250000
vt 0.487694 0.273411
vt 0.485388 0.296822
vt 0.478560 0.319333
vt 0.471731 0.341844
vt 0.460642 0.362590
vt 0.449553 0.383337
vt 0.434629 0.401521
vt 0.419706 0.419706
vt 0.401521 0.434629
vt 0.383337 0.449553
vt 0.362590 0.460642
vt 0.341844 0.471731
vt 0.319333 0.478560
vt 0.046875 0.750000
vt 0.046875 1.000000
vt 0.031250 1.000000
vt 0.031250 0.750000
vt 0.015625 0.750000
vt 0.015625 1.000000
vt 0.000000 1.000000
vt 0.000000 0.750000
vt 1.000000 0.750000
vt 1.000000 1.000000
s 0
f 128/1/1 33/2/1 2/3/1 35/4/1
f 127/5/2 36/6/2 3/7/2 37/8/2
f 126/9/3 38/10/3 4/11/3 39/12/3
f 125/13/4 40/14/4 5/15/4 41/16/4
f 124/17/5 42/18/5 6/19/5 43/20/5
f 123/21/6 44/22/6 7/23/6 45/24/6
f 122/25/7 46/26/7 8/27/7 47/28/7
f 121/29/8 48/30/8 9/31/8 49/32/8
f 120/33/9 50/34/9 10/35/9 51/36/9
f 119/37/10 52/38/10 11/39/10 53/40/10
f 118/41/11 54/42/11 12/43/11 55/44/11
f 117/45/12 56/46/12 13/47/12 57/48/12
f 116/49/13 58/50/13 14/51/13 59/52/13
f 115/53/14 60/54/14 15/55/14 61/56/14
f 114/57/15 62/58/15 16/59/15 63/60/15
f 113/61/16 64/62/16 17/63/16 65/64/16
f 112/65/17 66/66/17 18/67/17 67/68/17
f 111/69/18 68/70/18 19/71/18 69/72/18
f 110/73/19 70/74/19 20/75/19 71/76/19
f 109/77/20 72/78/20 21/79/20 73/80/20
f 108/81/21 74/82/21 22/83/21 75/84/21
f 107/85/22 76/86/22 23/87/22 77/88/22
f 106/89/23 78/90/23 24/91/23 79/92/23
f 105/93/24 80/94/24 25/95/24 81/96/24
f 104/97/25 82/98/25 26/99/25 83/100/25
f 103/101/26 84/102/26 27/103/26 85/104/26
f 102/105/27 86/106/27 28/107/27 87/108/27
f 101/109/28 88/110/28 29/111/28 89/112/28
f 100/113/29 90/114/29 30/115/29 91/116/29
f 99/117/30 92/118/30 31/119/30 93/120/30
f 2/121/31 33/122/31 1/123/31 96/124/31 32/125/31 94/126/31 31/127/31 92/128/31 30/129/31 90/130/31 29/131/31 88/132/31 28/133/31 86/134/31 27/135/31 84/136/31 26/137/31 82/138/31 25/139/31 80/140/31 24/141/31 78/142/31 23/143/31 76/144/31 22/145/31 74/146/31 21/147/31 72/148/31 20/149/31 70/150/31 19/151/31 68/152/31 18/153/31 66/154/31 17/155/31 64/156/31 16/157/31 62/158/31 15/159/31 60/160/31 14/161/31 58/162/31 13/163/31 56/164/31 12/165/31 54/166/31 11/167/31 52/168/31 10/169/31 50/170/31 9/171/31 48/172/31 8/173/31 46/174/31 7/175/31 44/176/31 6/177/31 42/178/31 5/179/31 40/180/31 4/181/31 38/182/31 3/183/31 36/184/31
f 98/185/32 94/186/32 32/187/32 95/188/32
f 97/189/33 96/190/33 1/191/33 34/192/33
f 97/189/34 34/193/34 128/1/34 35/4/34 127/5/34 37/8/34 126/9/34 39/12/34 125/13/34 41/16/34 124/17/34 43/20/34 123/21/34 45/24/34 122/25/34 47/28/34 121/29/34 49/32/34 120/33/34 51/36/34 119/37/34 53/40/34 118/41/34 55/44/34 117/45/34 57/48/34 116/49/34 59/52/34 115/53/34 61/56/34 114/57/34 63/60/34 113/61/34 65/64/34 112/65/34 67/68/34 111/69/34 69/72/34 110/73/34 71/76/34 109/77/34 73/80/34 108/81/34 75/84/34 107/85/34 77/88/34 106/89/34 79/92/34 105/93/34 81/96/34 104/97/34 83/100/34 103/101/34 85/104/34 102/105/34 87/108/34 101/109/34 89/112/34 100/113/34 91/116/34 99/117/34 93/120/34 98/185/34 95/188/34
f 95/188/33 32/187/33 96/190/33 97/189/33
f 93/120/32 31/119/32 94/186/32 98/185/32
f 91/116/30 30/115/30 92/118/30 99/117/30
f 89/112/29 29/111/29 90/114/29 100/113/29
f 87/108/28 28/107/28 88/110/28 101/109/28
f 85/104/27 27/103/27 86/106/27 102/105/27
f 83/100/26 26/99/26 84/102/26 103/101/26
f 81/96/25 25/95/25 82/98/25 104/97/25
f 79/92/24 24/91/24 80/94/24 105/93/24
f 77/88/23 23/87/23 78/90/23 106/89/23
f 75/84/22 22/83/22 76/86/22 107/85/22
f 73/80/21 21/79/21 74/82/21 108/81/21
f 71/76/20 20/75/20 72/78/20 109/77/20
f 69/72/19 19/71/19 70/74/19 110/73/19
f 67/68/18 18/67/18 68/70/18 111/69/18
f 65/64/17 17/63/17 66/66/17 112/65/17
f 63/60/16 16/59/16 64/62/16 113/61/16
f 61/56/15 15/55/15 62/58/15 114/57/15
f 59/52/14 14/51/14 60/54/14 115/53/14
f 57/48/13 13/47/13 58/50/13 116/49/13
f 55/44/12 12/43/12 56/46/12 117/45/12
f 53/40/11 11/39/11 54/42/11 118/41/11
f 51/36/10 10/35/10 52/38/10 119/37/10
f 49/32/9 9/31/9 50/34/9 120/33/9
f 47/28/8 8/27/8 48/30/8 121/29/8
f 45/24/7 7/23/7 46/26/7 122/25/7
f 43/20/6 6/19/6 44/22/6 123/21/6
f 41/16/5 5/15/5 42/18/5 124/17/5
f 39/12/4 4/11/4 40/14/4 125/13/4
f 37/8/3 3/7/3 38/10/3 126/9/3
f 35/4/2 2/3/2 36/6/2 127/5/2
f 34/193/1 1/194/1 33/2/1 128/1/1
f 256/1/35 161/2/35 130/3/35 163/4/35
f 255/5/36 164/6/36 131/7/36 165/8/36
f 254/9/37 166/10/37 132/11/37 167/12/37
f 253/13/38 168/14/38 133/15/38 169/16/38
f 252/17/39 170/18/39 134/19/39 171/20/39
f 251/21/40 172/22/40 135/23/40 173/24/40
f 250/25/41 174/26/41 136/27/41 175/28/41
f 249/29/42 176/30/42 137/31/42 177/32/42
f 248/33/43 178/34/43 138/35/43 179/36/43
f 247/37/44 180/38/44 139/39/44 181/40/44
f 246/41/45 182/42/45 140/43/45 183/44/45
f 245/45/46 184/46/46 141/47/46 185/48/46
f 244/49/47 186/50/47 142/51/47 187/52/47
f 243/53/48 188/54/48 143/55/48 189/56/48
f 242/57/49 190/58/49 144/59/49 191/60/49
f 241/61/50 192/62/50 145/63/50 193/64/50
f 240/65/51 194/66/51 146/67/51 195/68/51
f 239/69/52 196/70/52 147/71/52 197/72/52
f 238/73/53 198/74/53 148/75/53 199/76/53
f 237/77/54 200/78/54 149/79/54 201/80/54
f 236/81/55 202/82/55 150/83/55 203/84/55
f 235/85/56 204/86/56 151/87/56 205/88/56
f 234/89/57 206/90/57 152/91/57 207/92/57
f 233/93/58 208/94/58 153/95/58 209/96/58
f 232/97/59 210/98/59 154/99/59 211/100/59
f 231/101/60 212/102/60 155/103/60 213/104/60
f 230/105/61 214/106/61 156/107/61 215/108/61
f 229/109/62 216/110/62 157/111/62 217/112/62
f 228/113/63 218/114/63 158/115/63 219/116/63
f 227/117/64 220/118/64 159/119/64 221/120/64
f 130/121/31 161/122/31 129/123/31 224/124/31 160/125/31 222/126/31 159/127/31 220/128/31 158/129/31 218/130/31 157/131/31 216/132/31 156/133/31 214/134/31 155/135/31 212/136/31 154/137/31 210/138/31 153/139/31 208/140/31 152/141/31 206/142/31 151/143/31 204/144/31 150/145/31 202/146/31 149/147/31 200/148/31 148/149/31 198/150/31 147/151/31 196/152/31 146/153/31 194/154/31 145/155/31 192/156/31 144/157/31 190/158/31 143/159/31 188/160/31 142/161/31 186/162/31 141/163/31 184/164/31 140/165/31 182/166/31 139/167/31 180/168/31 138/169/31 178/170/31 137/171/31 176/172/31 136/173/31 174/174/31 135/175/31 172/176/31 134/177/31 170/178/31 133/179/31 168/180/31 132/181/31 166/182/31 131/183/31 164/184/31
f 226/185/65 222/186/65 160/187/65 223/188/65
f 225/189/66 224/190/66 129/191/66 162/192/66
f 225/189/34 162/193/34 256/1/34 163/4/34 255/5/34 165/8/34 254/9/34 167/12/34 253/13/34 169/16/34 252/17/34 171/20/34 251/21/34 173/24/34 250/25/34 175/28/34 249/29/34 177/32/34 248/33/34 179/36/34 247/37/34 181/40/34 246/41/34 183/44/34 245/45/34 185/48/34 244/49/34 187/52/34 243/53/34 189/56/34 242/57/34 191/60/34 241/61/34 193/64/34 240/65/34 195/68/34 239/69/34 197/72/34 238/73/34 199/76/34 237/77/34 201/80/34 236/81/34 203/84/34 235/85/34 205/88/34 234/89/34 207/92/34 233/93/34 209/96/34 232/97/34 211/100/34 231/101/34 213/104/34 230/105/34 215/108/34 229/109/34 217/112/34 228/113/34 219/116/34 227/117/34 221/120/34 226/185/34 223/188/34
f 223/188/67 160/187/67 224/190/67 225/189/67
f 221/120/68 159/119/68 222/186/68 226/185/68
f 219/116/69 158/115/69 220/118/69 227/117/69
f 217/112/70 157/111/70 218/114/70 228/113/70
f 215/108/71 156/107/71 216/110/71 229/109/71
f 213/104/72 155/103/72 214/106/72 230/105/72
f 211/100/73 154/99/73 212/102/73 231/101/73
f 209/96/74 153/95/74 210/98/74 232/97/74
f 207/92/75 152/91/75 208/94/75 233/93/75
f 205/88/76 151/87/76 206/90/76 234/89/76
f 203/84/77 150/83/77 204/86/77 235/85/77
f 201/80/78 149/79/78 202/82/78 236/81/78
f 199/76/79 148/75/79 200/78/79 237/77/79
f 197/72/80 147/71/80 198/74/80 238/73/80
f 195/68/81 146/67/81 196/70/81 239/69/81
f 193/64/82 145/63/82 194/66/82 240/65/82
f 191/60/83 144/59/83 192/62/83 241/61/83
f 189/56/84 143/55/84 190/58/84 242/57/84
f 187/52/85 142/51/85 188/54/85 243/53/85
f 185/48/86 141/47/86 186/50/86 244/49/86
f 183/44/87 140/43/87 184/46/87 245/45/87
f 181/40/88 139/39/88 182/42/88 246/41/88
f 179/36/89 138/35/89 180/38/89 247/37/89
f 177/32/90 137/31/90 178/34/90 248/33/90
f 175/28/91 136/27/91 176/30/91 249/29/91
f 173/24/92 135/23/92 174/26/92 250/25/92
f 171/20/93 134/19/93 172/22/93 251/21/93
f 169/16/94 133/15/94 170/18/94 252/17/94
f 167/12/95 132/11/95 168/14/95 253/13/95
f 165/8/96 131/7/96 166/10/96 254/9/96
f 163/4/97 130/3/97 164/6/97 255/5/97
f 162/193/98 129/194/98 161/2/98 256/1/98
l 162 257
l 163 258
l 165 259
l 167 260
l 169 261
l 171 262
l 173 263
l 175 264
l 177 265
l 179 266
l 181 267
l 183 268
l 185 269
l 187 270
l 189 271
l 191 272
l 193 273
l 195 274
l 197 275
l 199 276
l 201 277
l 203 278
l 205 279
l 207 280
l 209 281
l 211 282
l 213 283
l 215 284
l 217 285
l 219 286
l 221 287
l 223 288
l 225 289
l 226 290
l 227 291
l 228 292
l 229 293
l 230 294
l 231 295
l 232 296
l 233 297
l 234 298
l 235 299
l 236 300
l 237 301
l 238 302
l 239 303
l 240 304
l 241 305
l 242 306
l 243 307
l 244 308
l 245 309
l 246 310
l 247 311
l 248 312
l 249 313
l 250 314
l 251 315
l 252 316
l 253 317
l 254 318
l 255 319
l 256 320
