# Blender 5.1.0
# www.blender.org
mtllib hat02.mtl
o 柱体
v 0.000000 1.000000 -1.000000
v 0.195090 1.000000 -0.980785
v 0.382683 1.000000 -0.923880
v 0.555570 1.000000 -0.831470
v 0.707107 1.000000 -0.707107
v 0.831470 1.000000 -0.555570
v 0.923880 1.000000 -0.382683
v 0.980785 1.000000 -0.195090
v 1.000000 1.000000 0.000000
v 0.980785 1.000000 0.195090
v 0.923880 1.000000 0.382683
v 0.831470 1.000000 0.555570
v 0.707107 1.000000 0.707107
v 0.555570 1.000000 0.831470
v 0.382683 1.000000 0.923880
v 0.195090 1.000000 0.980785
v 0.000000 1.000000 1.000000
v -0.195090 1.000000 0.980785
v -0.382683 1.000000 0.923880
v -0.555570 1.000000 0.831470
v -0.707107 1.000000 0.707107
v -0.831470 1.000000 0.555570
v -0.923880 1.000000 0.382683
v -0.980785 1.000000 0.195090
v -1.000000 1.000000 0.000000
v -0.980785 1.000000 -0.195090
v -0.923880 1.000000 -0.382683
v -0.831470 1.000000 -0.555570
v -0.707107 1.000000 -0.707107
v -0.555570 1.000000 -0.831470
v -0.382683 1.000000 -0.923880
v -0.195090 1.000000 -0.980785
v 0.097545 1.000000 -0.990393
v 0.000000 0.000000 -1.000000
v 0.195090 0.000000 -0.980785
v 0.288887 1.000000 -0.952332
v 0.382683 0.000000 -0.923880
v 0.469127 1.000000 -0.877675
v 0.555570 0.000000 -0.831470
v 0.631338 1.000000 -0.769288
v 0.707107 0.000000 -0.707107
v 0.769288 1.000000 -0.631338
v 0.831470 0.000000 -0.555570
v 0.877675 1.000000 -0.469127
v 0.923880 0.000000 -0.382683
v 0.952332 1.000000 -0.288887
v 0.980785 0.000000 -0.195090
v 0.990393 1.000000 -0.097545
v 1.000000 0.000000 0.000000
v 0.990393 1.000000 0.097545
v 0.980785 0.000000 0.195090
v 0.952332 1.000000 0.288887
v 0.923880 0.000000 0.382683
v 0.877675 1.000000 0.469127
v 0.831470 0.000000 0.555570
v 0.769288 1.000000 0.631338
v 0.707107 0.000000 0.707107
v 0.631338 1.000000 0.769288
v 0.555570 0.000000 0.831470
v 0.469127 1.000000 0.877675
v 0.382683 0.000000 0.923880
v 0.288887 1.000000 0.952332
v 0.195090 0.000000 0.980785
v 0.097545 1.000000 0.990393
v 0.000000 0.000000 1.000000
v -0.097545 1.000000 0.990393
v -0.195090 0.000000 0.980785
v -0.288887 1.000000 0.952332
v -0.382683 0.000000 0.923880
v -0.469127 1.000000 0.877675
v -0.555570 0.000000 0.831470
v -0.631338 1.000000 0.769288
v -0.707107 0.000000 0.707107
v -0.769288 1.000000 0.631338
v -0.831470 0.000000 0.555570
v -0.877675 1.000000 0.469127
v -0.923880 0.000000 0.382683
v -0.952332 1.000000 0.288887
v -0.980785 0.000000 0.195090
v -0.990393 1.000000 0.097545
v -1.000000 0.000000 0.000000
v -0.990393 1.000000 -0.097545
v -0.980785 0.000000 -0.195090
v -0.952332 1.000000 -0.288887
v -0.923880 0.000000 -0.382683
v -0.877675 1.000000 -0.469127
v -0.831470 0.000000 -0.555570
v -0.769288 1.000000 -0.631338
v -0.707107 0.000000 -0.707107
v -0.631338 1.000000 -0.769288
v -0.555570 0.000000 -0.831470
v -0.469127 1.000000 -0.877675
v -0.382683 0.000000 -0.923880
v -0.288887 1.000000 -0.952332
v -0.195090 0.000000 -0.980785
v -0.097545 1.000000 -0.990393
v -0.097545 0.000000 -0.990393
v -0.288887 0.000000 -0.952332
v -0.469127 0.000000 -0.877675
v -0.631338 0.000000 -0.769288
v -0.769288 0.000000 -0.631338
v -0.877675 0.000000 -0.469127
v -0.952332 0.000000 -0.288887
v -0.990393 0.000000 -0.097545
v -0.990393 0.000000 0.097545
v -0.952332 0.000000 0.288887
v -0.877675 0.000000 0.469127
v -0.769288 0.000000 0.631338
v -0.631338 0.000000 0.769288
v -0.469127 0.000000 0.877675
v -0.288887 0.000000 0.952332
v -0.097545 0.000000 0.990393
v 0.097545 0.000000 0.990393
v 0.288887 0.000000 0.952332
v 0.469127 0.000000 0.877675
v 0.631338 0.000000 0.769288
v 0.769288 0.000000 0.631338
v 0.877675 0.000000 0.469127
v 0.952332 0.000000 0.288887
v 0.990393 0.000000 0.097545
v 0.990393 0.000000 -0.097545
v 0.952332 0.000000 -0.288887
v 0.877675 0.000000 -0.469127
v 0.769288 0.000000 -0.631338
v 0.631338 0.000000 -0.769288
v 0.469127 0.000000 -0.877675
v 0.288887 0.000000 -0.952332
v 0.097545 0.000000 -0.990393
v 1.276022 0.000000 -1.000000
v 1.471113 0.000000 -0.980785
v 1.658706 0.000000 -0.923880
v 1.831593 0.000000 -0.831470
v 1.983129 0.000000 -0.707107
v 2.107492 0.000000 -0.555570
v 2.199902 0.000000 -0.382683
v 2.256808 0.000000 -0.195090
v 2.276022 0.000000 0.000000
v 2.256808 0.000000 0.195090
v 2.199902 0.000000 0.382683
v 2.107492 0.000000 0.555570
v 1.983129 0.000000 0.707107
v 1.831593 0.000000 0.831470
v 1.658706 0.000000 0.923880
v 1.471113 0.000000 0.980785
v 1.276022 0.000000 1.000000
v 1.080932 0.000000 0.980785
v 0.893339 0.000000 0.923880
v 0.720452 0.000000 0.831470
v 0.568916 0.000000 0.707107
v 0.444553 0.000000 0.555570
v 0.352143 0.000000 0.382683
v 0.295237 0.000000 0.195090
v 0.276022 0.000000 0.000000
v 0.295237 0.000000 -0.195090
v 0.352143 0.000000 -0.382683
v 0.444553 0.000000 -0.555570
v 0.568916 0.000000 -0.707107
v 0.720452 0.000000 -0.831470
v 0.893339 0.000000 -0.923880
v 1.080932 0.000000 -0.980785
v 1.178477 0.000000 -0.990393
v 0.987136 0.000000 -0.952332
v 0.806896 0.000000 -0.877675
v 0.644684 0.000000 -0.769288
v 0.506734 0.000000 -0.631338
v 0.398348 0.000000 -0.469127
v 0.323690 0.000000 -0.288887
v 0.285630 0.000000 -0.097545
v 0.285630 0.000000 0.097545
v 0.323690 0.000000 0.288887
v 0.398348 0.000000 0.469127
v 0.506734 0.000000 0.631338
v 0.644684 0.000000 0.769288
v 0.806896 0.000000 0.877675
v 0.987136 0.000000 0.952332
v 1.178477 0.000000 0.990393
v 1.373568 0.000000 0.990393
v 1.564909 0.000000 0.952332
v 1.745149 0.000000 0.877675
v 1.907361 0.000000 0.769288
v 2.045310 0.000000 0.631338
v 2.153697 0.000000 0.469127
v 2.228355 0.000000 0.288887
v 2.266415 0.000000 0.097545
v 2.266415 0.000000 -0.097545
v 2.228355 0.000000 -0.288887
v 2.153697 0.000000 -0.469127
v 2.045310 0.000000 -0.631338
v 1.907361 0.000000 -0.769288
v 1.745149 0.000000 -0.877675
v 1.564909 0.000000 -0.952332
v 1.373568 0.000000 -0.990393
vn 0.0980 -0.0000 -0.9952
vn 0.2903 -0.0000 -0.9569
vn 0.4714 -0.0000 -0.8819
vn 0.6344 -0.0000 -0.7730
vn 0.7730 -0.0000 -0.6344
vn 0.8819 -0.0000 -0.4714
vn 0.9569 -0.0000 -0.2903
vn 0.9952 -0.0000 -0.0980
vn 0.9952 -0.0000 0.0980
vn 0.9569 -0.0000 0.2903
vn 0.8819 -0.0000 0.4714
vn 0.7730 -0.0000 0.6344
vn 0.6344 -0.0000 0.7730
vn 0.4714 -0.0000 0.8819
vn 0.2903 -0.0000 0.9569
vn 0.0980 -0.0000 0.9952
vn -0.0980 -0.0000 0.9952
vn -0.2903 -0.0000 0.9569
vn -0.4714 -0.0000 0.8819
vn -0.6344 -0.0000 0.7730
vn -0.7730 -0.0000 0.6344
vn -0.8819 -0.0000 0.4714
vn -0.9569 -0.0000 0.2903
vn -0.9952 -0.0000 0.0980
vn -0.9952 -0.0000 -0.0980
vn -0.9569 -0.0000 -0.2903
vn -0.8819 -0.0000 -0.4714
vn -0.7730 -0.0000 -0.6344
vn -0.6344 -0.0000 -0.7730
vn -0.4714 -0.0000 -0.8819
vn -0.0000 1.0000 -0.0000
vn -0.2903 -0.0000 -0.9569
vn -0.0980 -0.0000 -0.9952
vn -0.0000 -1.0000 -0.0000
vt 0.984375 0.750000
vt 0.984375 1.000000
vt 0.968750 1.000000
vt 0.968750 0.750000
vt 0.953125 0.750000
vt 0.953125 1.000000
vt 0.937500 1.000000
vt 0.937500 0.750000
vt 0.921875 0.750000
vt 0.921875 1.000000
vt 0.906250 1.000000
vt 0.906250 0.750000
vt 0.890625 0.750000
vt 0.890625 1.000000
vt 0.875000 1.000000
vt 0.875000 0.750000
vt 0.859375 0.750000
vt 0.859375 1.000000
vt 0.843750 1.000000
vt 0.843750 0.750000
vt 0.828125 0.750000
vt 0.828125 1.000000
vt 0.812500 1.000000
vt 0.812500 0.750000
vt 0.796875 0.750000
vt 0.796875 1.000000
vt 0.781250 1.000000
vt 0.781250 0.750000
vt 0.765625 0.750000
vt 0.765625 1.000000
vt 0.750000 1.000000
vt 0.750000 0.750000
vt 0.734375 0.750000
vt 0.734375 1.000000
vt 0.718750 1.000000
vt 0.718750 0.750000
vt 0.703125 0.750000
vt 0.703125 1.000000
vt 0.687500 1.000000
vt 0.687500 0.750000
vt 0.671875 0.750000
vt 0.671875 1.000000
vt 0.656250 1.000000
vt 0.656250 0.750000
vt 0.640625 0.750000
vt 0.640625 1.000000
vt 0.625000 1.000000
vt 0.625000 0.750000
vt 0.609375 0.750000
vt 0.609375 1.000000
vt 0.593750 1.000000
vt 0.593750 0.750000
vt 0.578125 0.750000
vt 0.578125 1.000000
vt 0.562500 1.000000
vt 0.562500 0.750000
vt 0.546875 0.750000
vt 0.546875 1.000000
vt 0.531250 1.000000
vt 0.531250 0.750000
vt 0.515625 0.750000
vt 0.515625 1.000000
vt 0.500000 1.000000
vt 0.500000 0.750000
vt 0.484375 0.750000
vt 0.484375 1.000000
vt 0.468750 1.000000
vt 0.468750 0.750000
vt 0.453125 0.750000
vt 0.453125 1.000000
vt 0.437500 1.000000
vt 0.437500 0.750000
vt 0.421875 0.750000
vt 0.421875 1.000000
vt 0.406250 1.000000
vt 0.406250 0.750000
vt 0.390625 0.750000
vt 0.390625 1.000000
vt 0.375000 1.000000
vt 0.375000 0.750000
vt 0.359375 0.750000
vt 0.359375 1.000000
vt 0.343750 1.000000
vt 0.343750 0.750000
vt 0.328125 0.750000
vt 0.328125 1.000000
vt 0.312500 1.000000
vt 0.312500 0.750000
vt 0.296875 0.750000
vt 0.296875 1.000000
vt 0.281250 1.000000
vt 0.281250 0.750000
vt 0.265625 0.750000
vt 0.265625 1.000000
vt 0.250000 1.000000
vt 0.250000 0.750000
vt 0.234375 0.750000
vt 0.234375 1.000000
vt 0.218750 1.000000
vt 0.218750 0.750000
vt 0.203125 0.750000
vt 0.203125 1.000000
vt 0.187500 1.000000
vt 0.187500 0.750000
vt 0.171875 0.750000
vt 0.171875 1.000000
vt 0.156250 1.000000
vt 0.156250 0.750000
vt 0.140625 0.750000
vt 0.140625 1.000000
vt 0.125000 1.000000
vt 0.125000 0.750000
vt 0.109375 0.750000
vt 0.109375 1.000000
vt 0.093750 1.000000
vt 0.093750 0.750000
vt 0.078125 0.750000
vt 0.078125 1.000000
vt 0.062500 1.000000
vt 0.062500 0.750000
vt 0.296822 0.485388
vt 0.273411 0.487694
vt 0.250000 0.490000
vt 0.226589 0.487694
vt 0.203178 0.485388
vt 0.180667 0.478560
vt 0.158156 0.471731
vt 0.137410 0.460642
vt 0.116663 0.449553
vt 0.098479 0.434629
vt 0.080294 0.419706
vt 0.065371 0.401521
vt 0.050447 0.383337
vt 0.039358 0.362590
vt 0.028269 0.341844
vt 0.021440 0.319333
vt 0.014612 0.296822
vt 0.012306 0.273411
vt 0.010000 0.250000
vt 0.012306 0.226589
vt 0.014612 0.203178
vt 0.021440 0.180667
vt 0.028269 0.158156
vt 0.039358 0.137410
vt 0.050447 0.116663
vt 0.065371 0.098479
vt 0.080294 0.080294
vt 0.098479 0.065371
vt 0.116663 0.050447
vt 0.137410 0.039358
vt 0.158156 0.028269
vt 0.180667 0.021440
vt 0.203178 0.014612
vt 0.226589 0.012306
vt 0.250000 0.010000
vt 0.273411 0.012306
vt 0.296822 0.014612
vt 0.319333 0.021440
vt 0.341844 0.028269
vt 0.362590 0.039358
vt 0.383337 0.050447
vt 0.401521 0.065371
vt 0.419706 0.080294
vt 0.434629 0.098479
vt 0.449553 0.116663
vt 0.460642 0.137410
vt 0.471731 0.158156
vt 0.478560 0.180667
vt 0.485388 0.203178
vt 0.487694 0.226589
vt 0.490000 0.250000
vt 0.487694 0.273411
vt 0.485388 0.296822
vt 0.478560 0.319333
vt 0.471731 0.341844
vt 0.460642 0.362590
vt 0.449553 0.383337
vt 0.434629 0.401521
vt 0.419706 0.419706
vt 0.401521 0.434629
vt 0.383337 0.449553
vt 0.362590 0.460642
vt 0.341844 0.471731
vt 0.319333 0.478560
vt 0.046875 0.750000
vt 0.046875 1.000000
vt 0.031250 1.000000
vt 0.031250 0.750000
vt 0.015625 0.750000
vt 0.015625 1.000000
vt 0.000000 1.000000
vt 0.000000 0.750000
vt 1.000000 0.750000
vt 1.000000 1.000000
vt 0.000000 0.000000
s 0
f 128/1/1 33/2/1 2/3/1 35/4/1
f 127/5/2 36/6/2 3/7/2 37/8/2
f 126/9/3 38/10/3 4/11/3 39/12/3
f 125/13/4 40/14/4 5/15/4 41/16/4
f 124/17/5 42/18/5 6/19/5 43/20/5
f 123/21/6 44/22/6 7/23/6 45/24/6
f 122/25/7 46/26/7 8/27/7 47/28/7
f 121/29/8 48/30/8 9/31/8 49/32/8
f 120/33/9 50/34/9 10/35/9 51/36/9
f 119/37/10 52/38/10 11/39/10 53/40/10
f 118/41/11 54/42/11 12/43/11 55/44/11
f 117/45/12 56/46/12 13/47/12 57/48/12
f 116/49/13 58/50/13 14/51/13 59/52/13
f 115/53/14 60/54/14 15/55/14 61/56/14
f 114/57/15 62/58/15 16/59/15 63/60/15
f 113/61/16 64/62/16 17/63/16 65/64/16
f 112/65/17 66/66/17 18/67/17 67/68/17
f 111/69/18 68/70/18 19/71/18 69/72/18
f 110/73/19 70/74/19 20/75/19 71/76/19
f 109/77/20 72/78/20 21/79/20 73/80/20
f 108/81/21 74/82/21 22/83/21 75/84/21
f 107/85/22 76/86/22 23/87/22 77/88/22
f 106/89/23 78/90/23 24/91/23 79/92/23
f 105/93/24 80/94/24 25/95/24 81/96/24
f 104/97/25 82/98/25 26/99/25 83/100/25
f 103/101/26 84/102/26 27/103/26 85/104/26
f 102/105/27 86/106/27 28/107/27 87/108/27
f 101/109/28 88/110/28 29/111/28 89/112/28
f 100/113/29 90/114/29 30/115/29 91/116/29
f 99/117/30 92/118/30 31/119/30 93/120/30
f 2/121/31 33/122/31 1/123/31 96/124/31 32/125/31 94/126/31 31/127/31 92/128/31 30/129/31 90/130/31 29/131/31 88/132/31 28/133/31 86/134/31 27/135/31 84/136/31 26/137/31 82/138/31 25/139/31 80/140/31 24/141/31 78/142/31 23/143/31 76/144/31 22/145/31 74/146/31 21/147/31 72/148/31 20/149/31 70/150/31 19/151/31 68/152/31 18/153/31 66/154/31 17/155/31 64/156/31 16/157/31 62/158/31 15/159/31 60/160/31 14/161/31 58/162/31 13/163/31 56/164/31 12/165/31 54/166/31 11/167/31 52/168/31 10/169/31 50/170/31 9/171/31 48/172/31 8/173/31 46/174/31 7/175/31 44/176/31 6/177/31 42/178/31 5/179/31 40/180/31 4/181/31 38/182/31 3/183/31 36/184/31
f 98/185/32 94/186/32 32/187/32 95/188/32
f 97/189/33 96/190/33 1/191/33 34/192/33
f 97/189/34 34/193/34 128/1/34 35/4/34 127/5/34 37/8/34 126/9/34 39/12/34 125/13/34 41/16/34 124/17/34 43/20/34 123/21/34 45/24/34 122/25/34 47/28/34 121/29/34 49/32/34 120/33/34 51/36/34 119/37/34 53/40/34 118/41/34 55/44/34 117/45/34 57/48/34 116/49/34 59/52/34 115/53/34 61/56/34 114/57/34 63/60/34 113/61/34 65/64/34 112/65/34 67/68/34 111/69/34 69/72/34 110/73/34 71/76/34 109/77/34 73/80/34 108/81/34 75/84/34 107/85/34 77/88/34 106/89/34 79/92/34 105/93/34 81/96/34 104/97/34 83/100/34 103/101/34 85/104/34 102/105/34 87/108/34 101/109/34 89/112/34 100/113/34 91/116/34 99/117/34 93/120/34 98/185/34 95/188/34
f 95/188/33 32/187/33 96/190/33 97/189/33
f 93/120/32 31/119/32 94/186/32 98/185/32
f 91/116/30 30/115/30 92/118/30 99/117/30
f 89/112/29 29/111/29 90/114/29 100/113/29
f 87/108/28 28/107/28 88/110/28 101/109/28
f 85/104/27 27/103/27 86/106/27 102/105/27
f 83/100/26 26/99/26 84/102/26 103/101/26
f 81/96/25 25/95/25 82/98/25 104/97/25
f 79/92/24 24/91/24 80/94/24 105/93/24
f 77/88/23 23/87/23 78/90/23 106/89/23
f 75/84/22 22/83/22 76/86/22 107/85/22
f 73/80/21 21/79/21 74/82/21 108/81/21
f 71/76/20 20/75/20 72/78/20 109/77/20
f 69/72/19 19/71/19 70/74/19 110/73/19
f 67/68/18 18/67/18 68/70/18 111/69/18
f 65/64/17 17/63/17 66/66/17 112/65/17
f 63/60/16 16/59/16 64/62/16 113/61/16
f 61/56/15 15/55/15 62/58/15 114/57/15
f 59/52/14 14/51/14 60/54/14 115/53/14
f 57/48/13 13/47/13 58/50/13 116/49/13
f 55/44/12 12/43/12 56/46/12 117/45/12
f 53/40/11 11/39/11 54/42/11 118/41/11
f 51/36/10 10/35/10 52/38/10 119/37/10
f 49/32/9 9/31/9 50/34/9 120/33/9
f 47/28/8 8/27/8 48/30/8 121/29/8
f 45/24/7 7/23/7 46/26/7 122/25/7
f 43/20/6 6/19/6 44/22/6 123/21/6
f 41/16/5 5/15/5 42/18/5 124/17/5
f 39/12/4 4/11/4 40/14/4 125/13/4
f 37/8/3 3/7/3 38/10/3 126/9/3
f 35/4/2 2/3/2 36/6/2 127/5/2
f 34/193/1 1/194/1 33/2/1 128/1/1
f 171/195/31 150/195/31 172/195/31 149/195/31 173/195/31 148/195/31 174/195/31 147/195/31 175/195/31 146/195/31 176/195/31 145/195/31 177/195/31 144/195/31 178/195/31 143/195/31 179/195/31 142/195/31 180/195/31 141/195/31 181/195/31 140/195/31 182/195/31 139/195/31 183/195/31 138/195/31 184/195/31 137/195/31 185/195/31 136/195/31 186/195/31 135/195/31 187/195/31 134/195/31 188/195/31 133/195/31 189/195/31 132/195/31 190/195/31 131/195/31 191/195/31 130/195/31 192/195/31 129/195/31 161/195/31 160/195/31 162/195/31 159/195/31 163/195/31 158/195/31 164/195/31 157/195/31 165/195/31 156/195/31 166/195/31 155/195/31 167/195/31 154/195/31 168/195/31 153/195/31 169/195/31 152/195/31 170/195/31 151/195/31
f 34/195/34 129/195/34 125/195/34
f 65/195/31 145/195/31 116/195/31
l 35 130
l 37 131
l 39 132
l 41 133
l 43 134
l 45 135
l 47 136
l 49 137
l 51 138
l 53 139
l 55 140
l 57 141
l 59 142
l 61 143
l 63 144
l 67 146
l 69 147
l 71 148
l 73 149
l 75 150
l 77 151
l 79 152
l 81 153
l 83 154
l 85 155
l 87 156
l 89 157
l 91 158
l 93 159
l 95 160
l 97 161
l 98 162
l 99 163
l 100 164
l 101 165
l 102 166
l 103 167
l 104 168
l 105 169
l 106 170
l 107 171
l 108 172
l 109 173
l 110 174
l 111 175
l 112 176
l 113 177
l 114 178
l 115 179
l 116 180
l 117 181
l 118 182
l 119 183
l 120 184
l 121 185
l 122 186
l 123 187
l 124 188
l 125 189
l 126 190
l 127 191
l 128 192
