# Blender 5.1.0
# www.blender.org
mtllib hat01.mtl
o 立方体
v -0.834895 -0.030000 -0.377265
v -0.834895 0.030000 -0.377265
v 0.834895 -0.030000 -0.377265
v 0.834895 0.030000 -0.377265
v -0.834895 -0.030000 -0.788880
v -0.834895 -0.016797 -1.050580
v -0.595382 -0.030000 -1.384345
v -0.595382 0.030000 -1.384345
v -0.834895 0.016797 -1.050580
v -0.834895 0.030000 -0.788880
v 0.834895 -0.016797 -1.075508
v 0.834895 -0.030000 -0.813808
v 0.583102 -0.030000 -1.396044
v 0.834895 0.030000 -0.813808
v 0.834895 0.016797 -1.075508
v 0.583102 0.030000 -1.396044
v 0.587905 0.030000 -1.389929
v -0.031333 0.030000 -1.608539
v 0.587905 -0.030000 -1.389929
v -0.031333 -0.030000 -1.608539
v 0.006091 0.030000 -1.608539
v -0.600867 0.030000 -1.376701
v -0.600867 -0.030000 -1.376701
v 0.006091 -0.030000 -1.608539
v 0.000000 0.904012 0.000000
v 0.000000 0.746603 -0.555570
v 0.000000 0.488909 -0.831470
v 0.000000 0.152217 -0.980785
v 0.000000 -0.030000 -1.000000
v 0.038060 0.886065 -0.191342
v 0.074658 0.832915 -0.375330
v 0.108386 0.746603 -0.544895
v 0.137950 0.630446 -0.693520
v 0.162212 0.488909 -0.815493
v 0.180240 0.327431 -0.906127
v 0.191342 0.152217 -0.961940
v 0.195090 -0.030000 -0.980785
v 0.074658 0.886065 -0.180240
v 0.146447 0.832915 -0.353553
v 0.212608 0.746603 -0.513280
v 0.270598 0.630446 -0.653281
v 0.318190 0.488909 -0.768178
v 0.353553 0.327431 -0.853553
v 0.375330 0.152217 -0.906127
v 0.382683 -0.030000 -0.923879
v 0.108386 0.886065 -0.162212
v 0.212608 0.832915 -0.318190
v 0.308658 0.746603 -0.461940
v 0.392847 0.630446 -0.587938
v 0.461940 0.488909 -0.691342
v 0.513280 0.327431 -0.768178
v 0.544895 0.152217 -0.815493
v 0.555570 -0.030000 -0.831469
v 0.137950 0.886065 -0.137950
v 0.270598 0.832915 -0.270598
v 0.392847 0.746603 -0.392847
v 0.500000 0.630446 -0.500000
v 0.587938 0.488909 -0.587938
v 0.653281 0.327431 -0.653281
v 0.693520 0.152217 -0.693520
v 0.707107 -0.030000 -0.707107
v 0.162212 0.886065 -0.108386
v 0.318190 0.832915 -0.212608
v 0.461940 0.746603 -0.308658
v 0.587938 0.630446 -0.392847
v 0.691342 0.488909 -0.461940
v 0.768178 0.327431 -0.513280
v 0.815493 0.152217 -0.544895
v 0.831470 -0.030000 -0.555570
v 0.180240 0.886065 -0.074658
v 0.353553 0.832915 -0.146447
v 0.513280 0.746603 -0.212608
v 0.653281 0.630446 -0.270598
v 0.768178 0.488909 -0.318190
v 0.853553 0.327431 -0.353553
v 0.906127 0.152217 -0.375330
v 0.923879 -0.030000 -0.382683
v 0.191342 0.886065 -0.038060
v 0.375330 0.832915 -0.074658
v 0.544895 0.746603 -0.108386
v 0.693520 0.630446 -0.137950
v 0.815493 0.488909 -0.162212
v 0.906127 0.327431 -0.180240
v 0.961940 0.152217 -0.191342
v 0.980785 -0.030000 -0.195090
v 0.195090 0.886065 0.000000
v 0.382683 0.832915 0.000000
v 0.555570 0.746603 0.000000
v 0.707107 0.630446 0.000000
v 0.831469 0.488909 0.000000
v 0.923879 0.327431 0.000000
v 0.980785 0.152217 0.000000
v 1.000000 -0.030000 0.000000
v 0.191342 0.886065 0.038060
v 0.375330 0.832915 0.074658
v 0.544895 0.746603 0.108386
v 0.693520 0.630446 0.137950
v 0.815493 0.488909 0.162212
v 0.906127 0.327431 0.180240
v 0.961940 0.152217 0.191342
v 0.980785 -0.030000 0.195090
v 0.180240 0.886065 0.074658
v 0.353553 0.832915 0.146447
v 0.513280 0.746603 0.212608
v 0.653281 0.630446 0.270598
v 0.768178 0.488909 0.318190
v 0.853553 0.327431 0.353553
v 0.906127 0.152217 0.375330
v 0.923879 -0.030000 0.382683
v 0.162212 0.886065 0.108386
v 0.318190 0.832915 0.212608
v 0.461940 0.746603 0.308658
v 0.587938 0.630446 0.392847
v 0.691341 0.488909 0.461940
v 0.768178 0.327431 0.513280
v 0.815493 0.152217 0.544895
v 0.831469 -0.030000 0.555570
v 0.137950 0.886065 0.137950
v 0.270598 0.832915 0.270598
v 0.392847 0.746603 0.392847
v 0.500000 0.630446 0.500000
v 0.587938 0.488909 0.587938
v 0.653281 0.327431 0.653281
v 0.693520 0.152217 0.693520
v 0.707106 -0.030000 0.707107
v 0.108386 0.886065 0.162212
v 0.212607 0.832915 0.318190
v 0.308658 0.746603 0.461940
v 0.392847 0.630446 0.587938
v 0.461940 0.488909 0.691342
v 0.513280 0.327431 0.768178
v 0.544895 0.152217 0.815493
v 0.555570 -0.030000 0.831469
v 0.074658 0.886065 0.180240
v 0.146447 0.832915 0.353553
v 0.212607 0.746603 0.513280
v 0.270598 0.630446 0.653281
v 0.318189 0.488909 0.768177
v 0.353553 0.327431 0.853553
v 0.375330 0.152217 0.906127
v 0.382683 -0.030000 0.923879
v 0.038060 0.886065 0.191342
v 0.074658 0.832915 0.375330
v 0.108386 0.746603 0.544895
v 0.137950 0.630446 0.693520
v 0.162212 0.488909 0.815493
v 0.180240 0.327431 0.906127
v 0.191342 0.152217 0.961939
v 0.195090 -0.030000 0.980785
v -0.000000 0.886065 0.195090
v -0.000000 0.832915 0.382683
v -0.000000 0.746603 0.555570
v -0.000000 0.630446 0.707107
v -0.000000 0.488909 0.831469
v 0.000000 0.327431 0.923879
v -0.000000 0.152217 0.980785
v -0.000000 -0.030000 0.999999
v -0.038060 0.886065 0.191342
v -0.074658 0.832915 0.375330
v -0.108386 0.746603 0.544895
v -0.137950 0.630446 0.693520
v -0.162212 0.488909 0.815493
v -0.180240 0.327431 0.906127
v -0.191342 0.152217 0.961939
v -0.195091 -0.030000 0.980785
v -0.074658 0.886065 0.180240
v -0.146447 0.832915 0.353553
v -0.212608 0.746603 0.513280
v -0.270598 0.630446 0.653281
v -0.318190 0.488909 0.768177
v -0.353553 0.327431 0.853553
v -0.375330 0.152217 0.906127
v -0.382683 -0.030000 0.923879
v -0.108386 0.886065 0.162212
v -0.212608 0.832915 0.318190
v -0.308658 0.746603 0.461939
v -0.392847 0.630446 0.587938
v -0.461940 0.488909 0.691341
v -0.513280 0.327431 0.768177
v -0.544895 0.152217 0.815493
v -0.555570 -0.030000 0.831469
v -0.137950 0.886065 0.137950
v -0.270598 0.832915 0.270598
v -0.392847 0.746603 0.392847
v -0.500000 0.630446 0.500000
v -0.587938 0.488909 0.587937
v -0.653281 0.327431 0.653281
v -0.693520 0.152217 0.693519
v -0.707106 -0.030000 0.707106
v -0.162212 0.886065 0.108386
v -0.318190 0.832915 0.212607
v -0.461940 0.746603 0.308658
v -0.587938 0.630446 0.392847
v -0.691341 0.488909 0.461939
v -0.768177 0.327431 0.513280
v -0.815493 0.152217 0.544895
v -0.831469 -0.030000 0.555569
v -0.180240 0.886065 0.074658
v -0.353553 0.832915 0.146446
v -0.513280 0.746603 0.212607
v -0.653281 0.630446 0.270598
v -0.768177 0.488909 0.318189
v -0.853553 0.327431 0.353553
v -0.906127 0.152217 0.375330
v -0.923879 -0.030000 0.382683
v -0.191342 0.886065 0.038060
v -0.375330 0.832915 0.074658
v -0.544895 0.746603 0.108386
v -0.693520 0.630446 0.137950
v -0.815493 0.488909 0.162211
v -0.906127 0.327431 0.180240
v -0.961939 0.152217 0.191341
v -0.980784 -0.030000 0.195090
v -0.195090 0.886065 0.000000
v -0.382683 0.832915 0.000000
v -0.555570 0.746603 -0.000000
v -0.707107 0.630446 0.000000
v -0.831469 0.488909 -0.000000
v -0.923879 0.327431 0.000000
v -0.980785 0.152217 -0.000000
v -0.999999 -0.030000 -0.000000
v -0.191342 0.886065 -0.038060
v -0.375330 0.832915 -0.074658
v -0.544895 0.746603 -0.108386
v -0.693520 0.630446 -0.137950
v -0.815493 0.488909 -0.162212
v -0.906127 0.327431 -0.180240
v -0.961939 0.152217 -0.191342
v -0.980784 -0.030000 -0.195091
v -0.180240 0.886065 -0.074658
v -0.353553 0.832915 -0.146447
v -0.513279 0.746603 -0.212608
v -0.653281 0.630446 -0.270598
v -0.768177 0.488909 -0.318190
v -0.853553 0.327431 -0.353553
v -0.906127 0.152217 -0.375330
v -0.923878 -0.030000 -0.382683
v -0.162212 0.886065 -0.108386
v -0.318189 0.832915 -0.212608
v -0.461939 0.746603 -0.308658
v -0.587938 0.630446 -0.392847
v -0.691341 0.488909 -0.461940
v -0.768177 0.327431 -0.513280
v -0.815493 0.152217 -0.544895
v -0.831468 -0.030000 -0.555570
v -0.137950 0.886065 -0.137950
v -0.270598 0.832915 -0.270598
v -0.392847 0.746603 -0.392847
v -0.500000 0.630446 -0.500000
v -0.587937 0.488909 -0.587937
v -0.653281 0.327431 -0.653281
v -0.693519 0.152217 -0.693520
v -0.707106 -0.030000 -0.707106
v -0.108386 0.886065 -0.162212
v -0.212607 0.832915 -0.318190
v -0.308658 0.746603 -0.461939
v -0.392847 0.630446 -0.587938
v -0.461939 0.488909 -0.691341
v -0.513280 0.327431 -0.768177
v -0.544895 0.152217 -0.815493
v -0.555569 -0.030000 -0.831469
v -0.074658 0.886065 -0.180240
v -0.146446 0.832915 -0.353553
v -0.212607 0.746603 -0.513279
v -0.270598 0.630446 -0.653281
v -0.318189 0.488909 -0.768177
v -0.353553 0.327431 -0.853553
v -0.375330 0.152217 -0.906127
v -0.382683 -0.030000 -0.923879
v -0.038060 0.886065 -0.191342
v -0.074658 0.832915 -0.375330
v -0.108386 0.746603 -0.544894
v -0.137950 0.630446 -0.693520
v -0.162211 0.488909 -0.815493
v -0.180240 0.327431 -0.906127
v -0.191341 0.152217 -0.961939
v -0.195090 -0.030000 -0.980784
v 0.000000 0.886065 -0.195090
v 0.000000 0.832915 -0.382683
v 0.000000 0.630446 -0.707107
v 0.000000 0.327431 -0.923879
vn -0.0000 -0.0000 1.0000
vn -0.1243 -0.9910 -0.0500
vn -0.1243 0.9910 -0.0500
vn 0.1157 -0.9920 -0.0500
vn 0.1157 0.9920 -0.0500
vn -0.0000 -1.0000 -0.0000
vn -1.0000 -0.0000 -0.0000
vn -0.0141 -0.0000 -0.9999
vn -0.0000 1.0000 -0.0000
vn 1.0000 -0.0000 -0.0000
vn 0.0268 0.9618 -0.2725
vn 0.0439 0.8938 -0.4462
vn 0.0598 0.7922 -0.6073
vn 0.0738 0.6583 -0.7492
vn 0.0852 0.4949 -0.8648
vn 0.0933 0.3075 -0.9470
vn 0.0975 0.1044 -0.9897
vn 0.0090 0.9958 -0.0916
vn 0.2887 0.1044 -0.9517
vn 0.0267 0.9958 -0.0881
vn 0.0795 0.9618 -0.2620
vn 0.1302 0.8938 -0.4291
vn 0.1771 0.7922 -0.5839
vn 0.2185 0.6583 -0.7204
vn 0.2522 0.4949 -0.8315
vn 0.2762 0.3075 -0.9106
vn 0.3549 0.6583 -0.6639
vn 0.4096 0.4949 -0.7664
vn 0.4485 0.3075 -0.8392
vn 0.4688 0.1044 -0.8771
vn 0.0434 0.9958 -0.0812
vn 0.1291 0.9618 -0.2415
vn 0.2114 0.8938 -0.3955
vn 0.2877 0.7922 -0.5382
vn 0.0584 0.9958 -0.0712
vn 0.1737 0.9618 -0.2117
vn 0.2845 0.8938 -0.3466
vn 0.3871 0.7922 -0.4717
vn 0.4776 0.6583 -0.5819
vn 0.5513 0.4949 -0.6717
vn 0.6036 0.3075 -0.7355
vn 0.6309 0.1044 -0.7688
vn 0.5819 0.6583 -0.4776
vn 0.6717 0.4949 -0.5513
vn 0.7355 0.3075 -0.6036
vn 0.7688 0.1044 -0.6309
vn 0.0712 0.9958 -0.0584
vn 0.2117 0.9618 -0.1737
vn 0.3466 0.8938 -0.2845
vn 0.4717 0.7922 -0.3871
vn 0.2415 0.9618 -0.1291
vn 0.3955 0.8938 -0.2114
vn 0.5382 0.7922 -0.2877
vn 0.6639 0.6583 -0.3549
vn 0.7664 0.4949 -0.4096
vn 0.8392 0.3075 -0.4485
vn 0.8771 0.1044 -0.4688
vn 0.0812 0.9958 -0.0434
vn 0.8315 0.4949 -0.2522
vn 0.9106 0.3075 -0.2762
vn 0.9517 0.1044 -0.2887
vn 0.0881 0.9958 -0.0267
vn 0.2620 0.9618 -0.0795
vn 0.4291 0.8938 -0.1302
vn 0.5839 0.7922 -0.1771
vn 0.7204 0.6583 -0.2185
vn 0.2725 0.9618 -0.0268
vn 0.4462 0.8938 -0.0440
vn 0.6073 0.7922 -0.0598
vn 0.7492 0.6583 -0.0738
vn 0.8648 0.4949 -0.0852
vn 0.9470 0.3075 -0.0933
vn 0.9897 0.1044 -0.0975
vn 0.0916 0.9958 -0.0090
vn 0.8648 0.4949 0.0852
vn 0.9470 0.3075 0.0933
vn 0.9897 0.1044 0.0975
vn 0.0916 0.9958 0.0090
vn 0.2725 0.9618 0.0268
vn 0.4462 0.8938 0.0440
vn 0.6073 0.7922 0.0598
vn 0.7492 0.6583 0.0738
vn 0.4291 0.8938 0.1302
vn 0.5839 0.7922 0.1771
vn 0.7204 0.6583 0.2185
vn 0.8315 0.4949 0.2522
vn 0.9106 0.3075 0.2762
vn 0.9517 0.1044 0.2887
vn 0.0881 0.9958 0.0267
vn 0.2620 0.9618 0.0795
vn 0.8392 0.3075 0.4485
vn 0.8771 0.1044 0.4688
vn 0.0812 0.9958 0.0434
vn 0.2415 0.9618 0.1291
vn 0.3955 0.8938 0.2114
vn 0.5382 0.7922 0.2877
vn 0.6639 0.6583 0.3549
vn 0.7664 0.4949 0.4096
vn 0.4717 0.7922 0.3871
vn 0.5819 0.6583 0.4776
vn 0.6717 0.4949 0.5513
vn 0.7355 0.3075 0.6036
vn 0.7688 0.1044 0.6309
vn 0.0712 0.9958 0.0584
vn 0.2117 0.9618 0.1737
vn 0.3466 0.8938 0.2845
vn 0.6309 0.1044 0.7688
vn 0.0584 0.9958 0.0712
vn 0.1737 0.9618 0.2117
vn 0.2845 0.8938 0.3466
vn 0.3871 0.7922 0.4717
vn 0.4776 0.6583 0.5819
vn 0.5513 0.4949 0.6717
vn 0.6036 0.3075 0.7355
vn 0.2877 0.7922 0.5382
vn 0.3549 0.6583 0.6639
vn 0.4096 0.4949 0.7664
vn 0.4485 0.3075 0.8392
vn 0.4688 0.1044 0.8771
vn 0.0434 0.9958 0.0812
vn 0.1291 0.9618 0.2415
vn 0.2114 0.8938 0.3955
vn 0.2887 0.1044 0.9517
vn 0.0267 0.9958 0.0881
vn 0.0795 0.9618 0.2620
vn 0.1302 0.8938 0.4291
vn 0.1771 0.7922 0.5839
vn 0.2185 0.6583 0.7204
vn 0.2522 0.4949 0.8315
vn 0.2762 0.3075 0.9106
vn 0.0738 0.6583 0.7492
vn 0.0852 0.4949 0.8648
vn 0.0933 0.3075 0.9470
vn 0.0975 0.1044 0.9898
vn 0.0090 0.9958 0.0916
vn 0.0268 0.9618 0.2725
vn 0.0440 0.8938 0.4462
vn 0.0598 0.7922 0.6073
vn -0.0090 0.9958 0.0916
vn -0.0268 0.9618 0.2725
vn -0.0440 0.8938 0.4462
vn -0.0598 0.7922 0.6073
vn -0.0738 0.6583 0.7492
vn -0.0852 0.4949 0.8648
vn -0.0933 0.3075 0.9470
vn -0.0975 0.1044 0.9897
vn -0.2185 0.6583 0.7204
vn -0.2522 0.4949 0.8315
vn -0.2762 0.3075 0.9106
vn -0.2887 0.1044 0.9517
vn -0.0267 0.9958 0.0881
vn -0.0795 0.9618 0.2620
vn -0.1302 0.8938 0.4291
vn -0.1771 0.7922 0.5839
vn -0.1291 0.9618 0.2415
vn -0.2114 0.8938 0.3955
vn -0.2877 0.7922 0.5382
vn -0.3549 0.6583 0.6639
vn -0.4096 0.4949 0.7664
vn -0.4485 0.3075 0.8392
vn -0.4688 0.1044 0.8771
vn -0.0434 0.9958 0.0812
vn -0.5513 0.4949 0.6717
vn -0.6036 0.3075 0.7355
vn -0.6309 0.1044 0.7688
vn -0.0584 0.9958 0.0712
vn -0.1737 0.9618 0.2117
vn -0.2845 0.8938 0.3466
vn -0.3871 0.7922 0.4717
vn -0.4776 0.6583 0.5819
vn -0.3466 0.8938 0.2845
vn -0.4717 0.7922 0.3871
vn -0.5819 0.6583 0.4776
vn -0.6717 0.4949 0.5513
vn -0.7355 0.3075 0.6036
vn -0.7688 0.1044 0.6309
vn -0.0712 0.9958 0.0584
vn -0.2117 0.9618 0.1737
vn -0.8392 0.3075 0.4485
vn -0.8771 0.1044 0.4688
vn -0.0812 0.9958 0.0434
vn -0.2415 0.9618 0.1291
vn -0.3955 0.8938 0.2114
vn -0.5382 0.7922 0.2877
vn -0.6639 0.6583 0.3549
vn -0.7664 0.4949 0.4096
vn -0.4291 0.8938 0.1302
vn -0.5839 0.7922 0.1771
vn -0.7204 0.6583 0.2185
vn -0.8315 0.4949 0.2522
vn -0.9106 0.3075 0.2762
vn -0.9517 0.1044 0.2887
vn -0.0881 0.9958 0.0267
vn -0.2620 0.9618 0.0795
vn -0.9470 0.3075 0.0933
vn -0.9898 0.1044 0.0975
vn -0.0916 0.9958 0.0090
vn -0.2725 0.9618 0.0268
vn -0.4462 0.8938 0.0440
vn -0.6073 0.7922 0.0598
vn -0.7492 0.6583 0.0738
vn -0.8648 0.4949 0.0852
vn -0.6073 0.7922 -0.0598
vn -0.7492 0.6583 -0.0738
vn -0.8648 0.4949 -0.0852
vn -0.9470 0.3075 -0.0933
vn -0.9897 0.1044 -0.0975
vn -0.0916 0.9958 -0.0090
vn -0.2725 0.9618 -0.0268
vn -0.4462 0.8938 -0.0440
vn -0.9517 0.1044 -0.2887
vn -0.0881 0.9958 -0.0267
vn -0.2620 0.9618 -0.0795
vn -0.4291 0.8938 -0.1302
vn -0.5839 0.7922 -0.1771
vn -0.7204 0.6583 -0.2185
vn -0.8315 0.4949 -0.2522
vn -0.9106 0.3075 -0.2762
vn -0.5382 0.7922 -0.2877
vn -0.6639 0.6583 -0.3549
vn -0.7664 0.4949 -0.4096
vn -0.8392 0.3075 -0.4485
vn -0.8771 0.1044 -0.4688
vn -0.0812 0.9958 -0.0434
vn -0.2415 0.9618 -0.1291
vn -0.3955 0.8938 -0.2114
vn -0.7688 0.1044 -0.6309
vn -0.0712 0.9958 -0.0584
vn -0.2117 0.9618 -0.1737
vn -0.3466 0.8938 -0.2845
vn -0.4717 0.7922 -0.3871
vn -0.5819 0.6583 -0.4776
vn -0.6717 0.4949 -0.5513
vn -0.7355 0.3075 -0.6036
vn -0.4776 0.6583 -0.5819
vn -0.5513 0.4949 -0.6717
vn -0.6036 0.3075 -0.7355
vn -0.6309 0.1044 -0.7688
vn -0.0584 0.9958 -0.0712
vn -0.1737 0.9618 -0.2117
vn -0.2845 0.8938 -0.3466
vn -0.3871 0.7922 -0.4717
vn -0.1291 0.9618 -0.2415
vn -0.2114 0.8938 -0.3955
vn -0.2877 0.7922 -0.5382
vn -0.3549 0.6583 -0.6639
vn -0.4096 0.4949 -0.7664
vn -0.4485 0.3075 -0.8392
vn -0.4688 0.1044 -0.8771
vn -0.0434 0.9958 -0.0812
vn -0.2522 0.4949 -0.8315
vn -0.2762 0.3075 -0.9106
vn -0.2887 0.1044 -0.9517
vn -0.0267 0.9958 -0.0881
vn -0.0795 0.9618 -0.2620
vn -0.1302 0.8938 -0.4291
vn -0.1771 0.7922 -0.5839
vn -0.2185 0.6583 -0.7204
vn -0.0268 0.9618 -0.2725
vn -0.0440 0.8938 -0.4462
vn -0.0598 0.7922 -0.6073
vn -0.0738 0.6583 -0.7492
vn -0.0852 0.4949 -0.8648
vn -0.0933 0.3075 -0.9470
vn -0.0975 0.1044 -0.9897
vn -0.0090 0.9958 -0.0916
vn -0.0099 -0.0000 -1.0000
vt 0.375000 0.750000
vt 0.625000 0.750000
vt 0.625000 1.000000
vt 0.375000 1.000000
vt 0.375000 0.185409
vt 0.430014 0.250000
vt 0.375000 0.281612
vt 0.625000 0.281612
vt 0.569986 0.250000
vt 0.625000 0.185409
vt 0.430014 0.500000
vt 0.375000 0.583672
vt 0.353966 0.457932
vt 0.625000 0.583285
vt 0.569986 0.500000
vt 0.646034 0.457932
vt 0.125000 0.629182
vt 0.156612 0.500000
vt 0.155888 0.500000
vt 0.220427 0.500000
vt 0.217073 0.500000
vt 0.313102 0.500000
vt 0.125000 0.750000
vt 0.375000 0.000000
vt 0.625000 0.000000
vt 0.625000 0.280888
vt 0.625000 0.345427
vt 0.625000 0.342073
vt 0.625000 0.438102
vt 0.375000 0.438102
vt 0.375000 0.342073
vt 0.375000 0.345427
vt 0.375000 0.280888
vt 0.686898 0.500000
vt 0.782927 0.500000
vt 0.779573 0.500000
vt 0.844112 0.500000
vt 0.843388 0.500000
vt 0.875000 0.629182
vt 0.875000 0.750000
vt 0.750000 0.875000
vt 0.750000 0.937500
vt 0.718750 0.937500
vt 0.718750 0.875000
vt 0.750000 0.812500
vt 0.718750 0.812500
vt 0.750000 0.750000
vt 0.718750 0.750000
vt 0.750000 0.687500
vt 0.718750 0.687500
vt 0.750000 0.625000
vt 0.718750 0.625000
vt 0.750000 0.562500
vt 0.718750 0.562500
vt 0.750000 0.500000
vt 0.718750 0.500000
vt 0.734375 1.000000
vt 0.687500 0.562500
vt 0.687500 0.500000
vt 0.703125 1.000000
vt 0.687500 0.937500
vt 0.687500 0.875000
vt 0.687500 0.812500
vt 0.687500 0.750000
vt 0.687500 0.687500
vt 0.687500 0.625000
vt 0.656250 0.750000
vt 0.656250 0.687500
vt 0.656250 0.625000
vt 0.656250 0.562500
vt 0.656250 0.500000
vt 0.671875 1.000000
vt 0.656250 0.937500
vt 0.656250 0.875000
vt 0.656250 0.812500
vt 0.640625 1.000000
vt 0.625000 0.937500
vt 0.625000 0.875000
vt 0.625000 0.812500
vt 0.625000 0.687500
vt 0.625000 0.625000
vt 0.625000 0.562500
vt 0.625000 0.500000
vt 0.593750 0.750000
vt 0.593750 0.687500
vt 0.593750 0.625000
vt 0.593750 0.562500
vt 0.593750 0.500000
vt 0.609375 1.000000
vt 0.593750 0.937500
vt 0.593750 0.875000
vt 0.593750 0.812500
vt 0.562500 0.937500
vt 0.562500 0.875000
vt 0.562500 0.812500
vt 0.562500 0.750000
vt 0.562500 0.687500
vt 0.562500 0.625000
vt 0.562500 0.562500
vt 0.562500 0.500000
vt 0.578125 1.000000
vt 0.531250 0.687500
vt 0.531250 0.625000
vt 0.531250 0.562500
vt 0.531250 0.500000
vt 0.546875 1.000000
vt 0.531250 0.937500
vt 0.531250 0.875000
vt 0.531250 0.812500
vt 0.531250 0.750000
vt 0.500000 0.937500
vt 0.500000 0.875000
vt 0.500000 0.812500
vt 0.500000 0.750000
vt 0.500000 0.687500
vt 0.500000 0.625000
vt 0.500000 0.562500
vt 0.500000 0.500000
vt 0.515625 1.000000
vt 0.468750 0.687500
vt 0.468750 0.625000
vt 0.468750 0.562500
vt 0.468750 0.500000
vt 0.484375 1.000000
vt 0.468750 0.937500
vt 0.468750 0.875000
vt 0.468750 0.812500
vt 0.468750 0.750000
vt 0.437500 0.875000
vt 0.437500 0.812500
vt 0.437500 0.750000
vt 0.437500 0.687500
vt 0.437500 0.625000
vt 0.437500 0.562500
vt 0.437500 0.500000
vt 0.453125 1.000000
vt 0.437500 0.937500
vt 0.406250 0.625000
vt 0.406250 0.562500
vt 0.406250 0.500000
vt 0.421875 1.000000
vt 0.406250 0.937500
vt 0.406250 0.875000
vt 0.406250 0.812500
vt 0.406250 0.750000
vt 0.406250 0.687500
vt 0.375000 0.812500
vt 0.375000 0.750000
vt 0.375000 0.687500
vt 0.375000 0.625000
vt 0.375000 0.562500
vt 0.375000 0.500000
vt 0.390625 1.000000
vt 0.375000 0.937500
vt 0.375000 0.875000
vt 0.343750 0.562500
vt 0.343750 0.500000
vt 0.359375 1.000000
vt 0.343750 0.937500
vt 0.343750 0.875000
vt 0.343750 0.812500
vt 0.343750 0.750000
vt 0.343750 0.687500
vt 0.343750 0.625000
vt 0.312500 0.812500
vt 0.312500 0.750000
vt 0.312500 0.687500
vt 0.312500 0.625000
vt 0.312500 0.562500
vt 0.312500 0.500000
vt 0.328125 1.000000
vt 0.312500 0.937500
vt 0.312500 0.875000
vt 0.281250 0.562500
vt 0.281250 0.500000
vt 0.296875 1.000000
vt 0.281250 0.937500
vt 0.281250 0.875000
vt 0.281250 0.812500
vt 0.281250 0.750000
vt 0.281250 0.687500
vt 0.281250 0.625000
vt 0.250000 0.750000
vt 0.250000 0.687500
vt 0.250000 0.625000
vt 0.250000 0.562500
vt 0.250000 0.500000
vt 0.265625 1.000000
vt 0.250000 0.937500
vt 0.250000 0.875000
vt 0.250000 0.812500
vt 0.234375 1.000000
vt 0.218750 0.937500
vt 0.218750 0.875000
vt 0.218750 0.812500
vt 0.218750 0.750000
vt 0.218750 0.687500
vt 0.218750 0.625000
vt 0.218750 0.562500
vt 0.218750 0.500000
vt 0.187500 0.750000
vt 0.187500 0.687500
vt 0.187500 0.625000
vt 0.187500 0.562500
vt 0.187500 0.500000
vt 0.203125 1.000000
vt 0.187500 0.937500
vt 0.187500 0.875000
vt 0.187500 0.812500
vt 0.156250 0.937500
vt 0.156250 0.875000
vt 0.156250 0.812500
vt 0.156250 0.750000
vt 0.156250 0.687500
vt 0.156250 0.625000
vt 0.156250 0.562500
vt 0.156250 0.500000
vt 0.171875 1.000000
vt 0.125000 0.687500
vt 0.125000 0.625000
vt 0.125000 0.562500
vt 0.125000 0.500000
vt 0.140625 1.000000
vt 0.125000 0.937500
vt 0.125000 0.875000
vt 0.125000 0.812500
vt 0.125000 0.750000
vt 0.093750 0.875000
vt 0.093750 0.812500
vt 0.093750 0.750000
vt 0.093750 0.687500
vt 0.093750 0.625000
vt 0.093750 0.562500
vt 0.093750 0.500000
vt 0.109375 1.000000
vt 0.093750 0.937500
vt 0.062500 0.625000
vt 0.062500 0.562500
vt 0.062500 0.500000
vt 0.078125 1.000000
vt 0.062500 0.937500
vt 0.062500 0.875000
vt 0.062500 0.812500
vt 0.062500 0.750000
vt 0.062500 0.687500
vt 0.031250 0.875000
vt 0.031250 0.812500
vt 0.031250 0.750000
vt 0.031250 0.687500
vt 0.031250 0.625000
vt 0.031250 0.562500
vt 0.031250 0.500000
vt 0.046875 1.000000
vt 0.031250 0.937500
vt 0.000000 0.625000
vt 0.000000 0.562500
vt 0.000000 0.500000
vt 0.015625 1.000000
vt 0.000000 0.937500
vt 0.000000 0.875000
vt 0.000000 0.812500
vt 0.000000 0.750000
vt 0.000000 0.687500
vt 1.000000 0.750000
vt 1.000000 0.812500
vt 0.968750 0.812500
vt 0.968750 0.750000
vt 1.000000 0.687500
vt 0.968750 0.687500
vt 1.000000 0.625000
vt 0.968750 0.625000
vt 1.000000 0.562500
vt 0.968750 0.562500
vt 1.000000 0.500000
vt 0.968750 0.500000
vt 1.000000 0.937500
vt 0.984375 1.000000
vt 0.968750 0.937500
vt 1.000000 0.875000
vt 0.968750 0.875000
vt 0.937500 0.562500
vt 0.937500 0.500000
vt 0.953125 1.000000
vt 0.937500 0.937500
vt 0.937500 0.875000
vt 0.937500 0.812500
vt 0.937500 0.750000
vt 0.937500 0.687500
vt 0.937500 0.625000
vt 0.906250 0.812500
vt 0.906250 0.750000
vt 0.906250 0.687500
vt 0.906250 0.625000
vt 0.906250 0.562500
vt 0.906250 0.500000
vt 0.921875 1.000000
vt 0.906250 0.937500
vt 0.906250 0.875000
vt 0.875000 0.562500
vt 0.875000 0.500000
vt 0.890625 1.000000
vt 0.875000 0.937500
vt 0.875000 0.875000
vt 0.875000 0.812500
vt 0.875000 0.750000
vt 0.875000 0.687500
vt 0.875000 0.625000
vt 0.843750 0.750000
vt 0.843750 0.687500
vt 0.843750 0.625000
vt 0.843750 0.562500
vt 0.843750 0.500000
vt 0.859375 1.000000
vt 0.843750 0.937500
vt 0.843750 0.875000
vt 0.843750 0.812500
vt 0.812500 0.937500
vt 0.812500 0.875000
vt 0.812500 0.812500
vt 0.812500 0.750000
vt 0.812500 0.687500
vt 0.812500 0.625000
vt 0.812500 0.562500
vt 0.812500 0.500000
vt 0.828125 1.000000
vt 0.781250 0.687500
vt 0.781250 0.625000
vt 0.781250 0.562500
vt 0.781250 0.500000
vt 0.796875 1.000000
vt 0.781250 0.937500
vt 0.781250 0.875000
vt 0.781250 0.812500
vt 0.781250 0.750000
vt 0.765625 1.000000
vt 0.000000 0.000000
s 0
f 3/1/1 4/2/1 2/3/1 1/4/1
f 5/5/2 6/6/2 7/7/2
f 8/8/3 9/9/3 10/10/3
f 11/11/4 12/12/4 13/13/4
f 14/14/5 15/15/5 16/16/5
f 5/17/6 7/18/6 23/19/6 24/20/6 20/21/6 19/22/6 13/13/6 12/12/6 3/1/6 1/23/6
f 1/24/7 2/25/7 10/10/7 9/9/7 6/6/7 5/5/7
f 7/7/8 6/6/8 9/9/8 8/8/8 22/26/8 21/27/8 18/28/8 17/29/8 16/16/8 15/15/8 11/11/8 13/13/8 19/30/8 20/31/8 24/32/8 23/33/8
f 14/14/9 16/16/9 17/34/9 18/35/9 21/36/9 22/37/9 8/38/9 10/39/9 2/40/9 4/2/9
f 12/12/10 11/11/10 15/15/10 14/14/10 4/2/10 3/1/10
f 279/41/11 278/42/11 30/43/11 31/44/11
f 26/45/12 279/41/12 31/44/12 32/46/12
f 280/47/13 26/45/13 32/46/13 33/48/13
f 27/49/14 280/47/14 33/48/14 34/50/14
f 281/51/15 27/49/15 34/50/15 35/52/15
f 28/53/16 281/51/16 35/52/16 36/54/16
f 29/55/17 28/53/17 36/54/17 37/56/17
f 278/42/18 25/57/18 30/43/18
f 37/56/19 36/54/19 44/58/19 45/59/19
f 30/43/20 25/60/20 38/61/20
f 31/44/21 30/43/21 38/61/21 39/62/21
f 32/46/22 31/44/22 39/62/22 40/63/22
f 33/48/23 32/46/23 40/63/23 41/64/23
f 34/50/24 33/48/24 41/64/24 42/65/24
f 35/52/25 34/50/25 42/65/25 43/66/25
f 36/54/26 35/52/26 43/66/26 44/58/26
f 42/65/27 41/64/27 49/67/27 50/68/27
f 43/66/28 42/65/28 50/68/28 51/69/28
f 44/58/29 43/66/29 51/69/29 52/70/29
f 45/59/30 44/58/30 52/70/30 53/71/30
f 38/61/31 25/72/31 46/73/31
f 39/62/32 38/61/32 46/73/32 47/74/32
f 40/63/33 39/62/33 47/74/33 48/75/33
f 41/64/34 40/63/34 48/75/34 49/67/34
f 46/73/35 25/76/35 54/77/35
f 47/74/36 46/73/36 54/77/36 55/78/36
f 48/75/37 47/74/37 55/78/37 56/79/37
f 49/67/38 48/75/38 56/79/38 57/2/38
f 50/68/39 49/67/39 57/2/39 58/80/39
f 51/69/40 50/68/40 58/80/40 59/81/40
f 52/70/41 51/69/41 59/81/41 60/82/41
f 53/71/42 52/70/42 60/82/42 61/83/42
f 58/80/43 57/2/43 65/84/43 66/85/43
f 59/81/44 58/80/44 66/85/44 67/86/44
f 60/82/45 59/81/45 67/86/45 68/87/45
f 61/83/46 60/82/46 68/87/46 69/88/46
f 54/77/47 25/89/47 62/90/47
f 55/78/48 54/77/48 62/90/48 63/91/48
f 56/79/49 55/78/49 63/91/49 64/92/49
f 57/2/50 56/79/50 64/92/50 65/84/50
f 63/91/51 62/90/51 70/93/51 71/94/51
f 64/92/52 63/91/52 71/94/52 72/95/52
f 65/84/53 64/92/53 72/95/53 73/96/53
f 66/85/54 65/84/54 73/96/54 74/97/54
f 67/86/55 66/85/55 74/97/55 75/98/55
f 68/87/56 67/86/56 75/98/56 76/99/56
f 69/88/57 68/87/57 76/99/57 77/100/57
f 62/90/58 25/101/58 70/93/58
f 75/98/59 74/97/59 82/102/59 83/103/59
f 76/99/60 75/98/60 83/103/60 84/104/60
f 77/100/61 76/99/61 84/104/61 85/105/61
f 70/93/62 25/106/62 78/107/62
f 71/94/63 70/93/63 78/107/63 79/108/63
f 72/95/64 71/94/64 79/108/64 80/109/64
f 73/96/65 72/95/65 80/109/65 81/110/65
f 74/97/66 73/96/66 81/110/66 82/102/66
f 79/108/67 78/107/67 86/111/67 87/112/67
f 80/109/68 79/108/68 87/112/68 88/113/68
f 81/110/69 80/109/69 88/113/69 89/114/69
f 82/102/70 81/110/70 89/114/70 90/115/70
f 83/103/71 82/102/71 90/115/71 91/116/71
f 84/104/72 83/103/72 91/116/72 92/117/72
f 85/105/73 84/104/73 92/117/73 93/118/73
f 78/107/74 25/119/74 86/111/74
f 91/116/75 90/115/75 98/120/75 99/121/75
f 92/117/76 91/116/76 99/121/76 100/122/76
f 93/118/77 92/117/77 100/122/77 101/123/77
f 86/111/78 25/124/78 94/125/78
f 87/112/79 86/111/79 94/125/79 95/126/79
f 88/113/80 87/112/80 95/126/80 96/127/80
f 89/114/81 88/113/81 96/127/81 97/128/81
f 90/115/82 89/114/82 97/128/82 98/120/82
f 96/127/83 95/126/83 103/129/83 104/130/83
f 97/128/84 96/127/84 104/130/84 105/131/84
f 98/120/85 97/128/85 105/131/85 106/132/85
f 99/121/86 98/120/86 106/132/86 107/133/86
f 100/122/87 99/121/87 107/133/87 108/134/87
f 101/123/88 100/122/88 108/134/88 109/135/88
f 94/125/89 25/136/89 102/137/89
f 95/126/90 94/125/90 102/137/90 103/129/90
f 108/134/91 107/133/91 115/138/91 116/139/91
f 109/135/92 108/134/92 116/139/92 117/140/92
f 102/137/93 25/141/93 110/142/93
f 103/129/94 102/137/94 110/142/94 111/143/94
f 104/130/95 103/129/95 111/143/95 112/144/95
f 105/131/96 104/130/96 112/144/96 113/145/96
f 106/132/97 105/131/97 113/145/97 114/146/97
f 107/133/98 106/132/98 114/146/98 115/138/98
f 113/145/99 112/144/99 120/147/99 121/148/99
f 114/146/100 113/145/100 121/148/100 122/149/100
f 115/138/101 114/146/101 122/149/101 123/150/101
f 116/139/102 115/138/102 123/150/102 124/151/102
f 117/140/103 116/139/103 124/151/103 125/152/103
f 110/142/104 25/153/104 118/154/104
f 111/143/105 110/142/105 118/154/105 119/155/105
f 112/144/106 111/143/106 119/155/106 120/147/106
f 125/152/107 124/151/107 132/156/107 133/157/107
f 118/154/108 25/158/108 126/159/108
f 119/155/109 118/154/109 126/159/109 127/160/109
f 120/147/110 119/155/110 127/160/110 128/161/110
f 121/148/111 120/147/111 128/161/111 129/162/111
f 122/149/112 121/148/112 129/162/112 130/163/112
f 123/150/113 122/149/113 130/163/113 131/164/113
f 124/151/114 123/150/114 131/164/114 132/156/114
f 129/162/115 128/161/115 136/165/115 137/166/115
f 130/163/116 129/162/116 137/166/116 138/167/116
f 131/164/117 130/163/117 138/167/117 139/168/117
f 132/156/118 131/164/118 139/168/118 140/169/118
f 133/157/119 132/156/119 140/169/119 141/170/119
f 126/159/120 25/171/120 134/172/120
f 127/160/121 126/159/121 134/172/121 135/173/121
f 128/161/122 127/160/122 135/173/122 136/165/122
f 141/170/123 140/169/123 148/174/123 149/175/123
f 134/172/124 25/176/124 142/177/124
f 135/173/125 134/172/125 142/177/125 143/178/125
f 136/165/126 135/173/126 143/178/126 144/179/126
f 137/166/127 136/165/127 144/179/127 145/180/127
f 138/167/128 137/166/128 145/180/128 146/181/128
f 139/168/129 138/167/129 146/181/129 147/182/129
f 140/169/130 139/168/130 147/182/130 148/174/130
f 146/181/131 145/180/131 153/183/131 154/184/131
f 147/182/132 146/181/132 154/184/132 155/185/132
f 148/174/133 147/182/133 155/185/133 156/186/133
f 149/175/134 148/174/134 156/186/134 157/187/134
f 142/177/135 25/188/135 150/189/135
f 143/178/136 142/177/136 150/189/136 151/190/136
f 144/179/137 143/178/137 151/190/137 152/191/137
f 145/180/138 144/179/138 152/191/138 153/183/138
f 150/189/139 25/192/139 158/193/139
f 151/190/140 150/189/140 158/193/140 159/194/140
f 152/191/141 151/190/141 159/194/141 160/195/141
f 153/183/142 152/191/142 160/195/142 161/196/142
f 154/184/143 153/183/143 161/196/143 162/197/143
f 155/185/144 154/184/144 162/197/144 163/198/144
f 156/186/145 155/185/145 163/198/145 164/199/145
f 157/187/146 156/186/146 164/199/146 165/200/146
f 162/197/147 161/196/147 169/201/147 170/202/147
f 163/198/148 162/197/148 170/202/148 171/203/148
f 164/199/149 163/198/149 171/203/149 172/204/149
f 165/200/150 164/199/150 172/204/150 173/205/150
f 158/193/151 25/206/151 166/207/151
f 159/194/152 158/193/152 166/207/152 167/208/152
f 160/195/153 159/194/153 167/208/153 168/209/153
f 161/196/154 160/195/154 168/209/154 169/201/154
f 167/208/155 166/207/155 174/210/155 175/211/155
f 168/209/156 167/208/156 175/211/156 176/212/156
f 169/201/157 168/209/157 176/212/157 177/213/157
f 170/202/158 169/201/158 177/213/158 178/214/158
f 171/203/159 170/202/159 178/214/159 179/215/159
f 172/204/160 171/203/160 179/215/160 180/216/160
f 173/205/161 172/204/161 180/216/161 181/217/161
f 166/207/162 25/218/162 174/210/162
f 179/215/163 178/214/163 186/219/163 187/220/163
f 180/216/164 179/215/164 187/220/164 188/221/164
f 181/217/165 180/216/165 188/221/165 189/222/165
f 174/210/166 25/223/166 182/224/166
f 175/211/167 174/210/167 182/224/167 183/225/167
f 176/212/168 175/211/168 183/225/168 184/226/168
f 177/213/169 176/212/169 184/226/169 185/227/169
f 178/214/170 177/213/170 185/227/170 186/219/170
f 184/226/171 183/225/171 191/228/171 192/229/171
f 185/227/172 184/226/172 192/229/172 193/230/172
f 186/219/173 185/227/173 193/230/173 194/231/173
f 187/220/174 186/219/174 194/231/174 195/232/174
f 188/221/175 187/220/175 195/232/175 196/233/175
f 189/222/176 188/221/176 196/233/176 197/234/176
f 182/224/177 25/235/177 190/236/177
f 183/225/178 182/224/178 190/236/178 191/228/178
f 196/233/179 195/232/179 203/237/179 204/238/179
f 197/234/180 196/233/180 204/238/180 205/239/180
f 190/236/181 25/240/181 198/241/181
f 191/228/182 190/236/182 198/241/182 199/242/182
f 192/229/183 191/228/183 199/242/183 200/243/183
f 193/230/184 192/229/184 200/243/184 201/244/184
f 194/231/185 193/230/185 201/244/185 202/245/185
f 195/232/186 194/231/186 202/245/186 203/237/186
f 200/243/187 199/242/187 207/246/187 208/247/187
f 201/244/188 200/243/188 208/247/188 209/248/188
f 202/245/189 201/244/189 209/248/189 210/249/189
f 203/237/190 202/245/190 210/249/190 211/250/190
f 204/238/191 203/237/191 211/250/191 212/251/191
f 205/239/192 204/238/192 212/251/192 213/252/192
f 198/241/193 25/253/193 206/254/193
f 199/242/194 198/241/194 206/254/194 207/246/194
f 212/251/195 211/250/195 219/255/195 220/256/195
f 213/252/196 212/251/196 220/256/196 221/257/196
f 206/254/197 25/258/197 214/259/197
f 207/246/198 206/254/198 214/259/198 215/260/198
f 208/247/199 207/246/199 215/260/199 216/261/199
f 209/248/200 208/247/200 216/261/200 217/262/200
f 210/249/201 209/248/201 217/262/201 218/263/201
f 211/250/202 210/249/202 218/263/202 219/255/202
f 217/264/203 216/265/203 224/266/203 225/267/203
f 218/268/204 217/264/204 225/267/204 226/269/204
f 219/270/205 218/268/205 226/269/205 227/271/205
f 220/272/206 219/270/206 227/271/206 228/273/206
f 221/274/207 220/272/207 228/273/207 229/275/207
f 214/276/208 25/277/208 222/278/208
f 215/279/209 214/276/209 222/278/209 223/280/209
f 216/265/210 215/279/210 223/280/210 224/266/210
f 229/275/211 228/273/211 236/281/211 237/282/211
f 222/278/212 25/283/212 230/284/212
f 223/280/213 222/278/213 230/284/213 231/285/213
f 224/266/214 223/280/214 231/285/214 232/286/214
f 225/267/215 224/266/215 232/286/215 233/287/215
f 226/269/216 225/267/216 233/287/216 234/288/216
f 227/271/217 226/269/217 234/288/217 235/289/217
f 228/273/218 227/271/218 235/289/218 236/281/218
f 233/287/219 232/286/219 240/290/219 241/291/219
f 234/288/220 233/287/220 241/291/220 242/292/220
f 235/289/221 234/288/221 242/292/221 243/293/221
f 236/281/222 235/289/222 243/293/222 244/294/222
f 237/282/223 236/281/223 244/294/223 245/295/223
f 230/284/224 25/296/224 238/297/224
f 231/285/225 230/284/225 238/297/225 239/298/225
f 232/286/226 231/285/226 239/298/226 240/290/226
f 245/295/227 244/294/227 252/299/227 253/300/227
f 238/297/228 25/301/228 246/302/228
f 239/298/229 238/297/229 246/302/229 247/303/229
f 240/290/230 239/298/230 247/303/230 248/304/230
f 241/291/231 240/290/231 248/304/231 249/305/231
f 242/292/232 241/291/232 249/305/232 250/306/232
f 243/293/233 242/292/233 250/306/233 251/307/233
f 244/294/234 243/293/234 251/307/234 252/299/234
f 250/306/235 249/305/235 257/308/235 258/309/235
f 251/307/236 250/306/236 258/309/236 259/310/236
f 252/299/237 251/307/237 259/310/237 260/311/237
f 253/300/238 252/299/238 260/311/238 261/312/238
f 246/302/239 25/313/239 254/314/239
f 247/303/240 246/302/240 254/314/240 255/315/240
f 248/304/241 247/303/241 255/315/241 256/316/241
f 249/305/242 248/304/242 256/316/242 257/308/242
f 255/315/243 254/314/243 262/317/243 263/318/243
f 256/316/244 255/315/244 263/318/244 264/319/244
f 257/308/245 256/316/245 264/319/245 265/320/245
f 258/309/246 257/308/246 265/320/246 266/321/246
f 259/310/247 258/309/247 266/321/247 267/322/247
f 260/311/248 259/310/248 267/322/248 268/323/248
f 261/312/249 260/311/249 268/323/249 269/324/249
f 254/314/250 25/325/250 262/317/250
f 267/322/251 266/321/251 274/326/251 275/327/251
f 268/323/252 267/322/252 275/327/252 276/328/252
f 269/324/253 268/323/253 276/328/253 277/329/253
f 262/317/254 25/330/254 270/331/254
f 263/318/255 262/317/255 270/331/255 271/332/255
f 264/319/256 263/318/256 271/332/256 272/333/256
f 265/320/257 264/319/257 272/333/257 273/334/257
f 266/321/258 265/320/258 273/334/258 274/326/258
f 271/332/259 270/331/259 278/42/259 279/41/259
f 272/333/260 271/332/260 279/41/260 26/45/260
f 273/334/261 272/333/261 26/45/261 280/47/261
f 274/326/262 273/334/262 280/47/262 27/49/262
f 275/327/263 274/326/263 27/49/263 281/51/263
f 276/328/264 275/327/264 281/51/264 28/53/264
f 277/329/265 276/328/265 28/53/265 29/55/265
f 270/331/266 25/335/266 278/42/266
f 29/55/6 37/56/6 45/59/6 53/71/6 61/83/6 69/88/6 77/100/6 85/105/6 93/118/6 101/123/6 109/135/6 117/140/6 125/152/6 133/157/6 141/170/6 149/175/6 157/187/6 165/200/6 173/205/6 181/217/6 189/222/6 197/234/6 205/239/6 213/252/6 221/274/6 229/275/6 237/282/6 245/295/6 253/300/6 261/312/6 269/324/6 277/329/6
f 16/336/267 13/336/267 24/20/267 20/21/267 7/336/267 8/336/267 18/28/267 21/27/267
l 24 21
l 20 18
