# Blender 5.1.0
# www.blender.org
mtllib tie.mtl
o 立方体
v 2.956594 -0.250000 0.548703
v 2.956594 0.250000 0.548703
v -0.048505 -0.250000 0.000000
v 0.026191 0.250000 0.000000
v 3.790299 -0.250000 0.000000
v 3.790299 0.250000 0.000000
v 2.794456 -0.250000 -0.195659
v 2.956594 0.250000 -0.568959
v -0.049502 -0.250000 0.535781
v -0.049502 0.250000 0.535781
v -0.049503 -0.250000 -0.575794
v -0.049503 0.250000 -0.575794
v 1.000000 -0.250000 0.199891
v 1.000000 0.250000 0.199891
v 1.000000 -0.250000 -0.208395
v 1.000000 0.250000 -0.208395
vn -0.1818 0.0136 0.9832
vn -0.1243 -0.3210 -0.9389
vn 0.3572 -0.3769 -0.8546
vn 0.5498 -0.0000 0.8353
vn -0.0000 -1.0000 -0.0000
vn -0.0000 1.0000 -0.0000
vn -1.0000 -0.0000 -0.0000
vn 0.3304 -0.0000 -0.9438
vn 1.0000 -0.0000 -0.0000
vn 0.3048 -0.0000 0.9524
vt 0.375000 0.000000
vt 0.625000 0.000000
vt 0.625000 0.250000
vt 0.375000 0.250000
vt 0.625000 0.500000
vt 0.375000 0.500000
vt 0.625000 0.750000
vt 0.375000 0.750000
vt 0.625000 1.000000
vt 0.375000 1.000000
vt 0.125000 0.500000
vt 0.125000 0.750000
vt 0.875000 0.500000
vt 0.875000 0.750000
s 0
f 1/1/1 2/2/1 4/3/1 3/4/1
f 3/4/2 4/3/2 8/5/2 7/6/2
f 7/6/3 8/5/3 6/7/3 5/8/3
f 5/8/4 6/7/4 2/9/4 1/10/4
f 3/11/5 7/6/5 5/8/5 1/12/5
f 8/5/6 4/13/6 2/14/6 6/7/6
f 9/1/7 10/2/7 12/3/7 11/4/7
f 11/4/8 12/3/8 16/5/8 15/6/8
f 15/6/9 16/5/9 14/7/9 13/8/9
f 13/8/10 14/7/10 10/9/10 9/10/10
f 11/11/5 15/6/5 13/8/5 9/12/5
f 16/5/6 12/13/6 10/14/6 14/7/6
